<?xml version="1.0" encoding="UTF-8"?>
<svg id="Layer_2" data-name="Layer 2" xmlns="http://www.w3.org/2000/svg" viewBox="0 0 364.98 178.83">
  <defs>
    <style>
      .cls-1 {
        fill: #231f20;
        font-family: NexusSansPro-Bold, 'Nexus Sans Pro';
        font-size: 14.93px;
        font-weight: 700;
      }

      .cls-2 {
        fill: #fff;
      }

      .cls-2, .cls-3 {
        stroke: #231f20;
        stroke-miterlimit: 10;
      }

      .cls-3 {
        fill: none;
      }

      .cls-4 {
        fill: #f7fbfd;
      }

      .cls-4, .cls-5, .cls-6, .cls-7, .cls-8, .cls-9, .cls-10, .cls-11, .cls-12, .cls-13, .cls-14, .cls-15, .cls-16, .cls-17, .cls-18, .cls-19, .cls-20 {
        stroke-width: 0px;
      }

      .cls-5 {
        fill: #497a79;
      }

      .cls-6 {
        fill: #45c2c6;
      }

      .cls-7 {
        fill: #088371;
      }

      .cls-8 {
        fill: #0e2122;
      }

      .cls-9 {
        fill: #061c19;
      }

      .cls-10 {
        fill: #090f0f;
      }

      .cls-11 {
        fill: #080809;
      }

      .cls-12 {
        fill: #2292a4;
      }

      .cls-13 {
        fill: #121919;
      }

      .cls-14 {
        fill: #b0b1b1;
      }

      .cls-15 {
        fill: #00a39f;
      }

      .cls-16 {
        fill: #016161;
      }

      .cls-17 {
        fill: #e9f7fd;
      }

      .cls-18 {
        fill: #fafcfd;
      }

      .cls-19 {
        fill: #053329;
      }

      .cls-20 {
        fill: #008781;
      }
    </style>
  </defs>
  <g id="Layer_1-2" data-name="Layer 1">
    <g>
      <ellipse class="cls-2" cx="87.32" cy="31.54" rx="32.15" ry="30.93"/>
      <rect class="cls-2" x=".5" y="111.7" width="60.08" height="66.63" rx="10.02" ry="10.02"/>
      <line class="cls-3" x1="84.61" y1="62.34" x2="29.8" y2="111.85"/>
      <line class="cls-3" x1="87.63" y1="62.39" x2="135.14" y2="111.6"/>
      <g>
        <text class="cls-1" transform="translate(88.01 23.72)"><tspan x="0" y="0">: 50</tspan></text>
        <g>
          <g>
            <g>
              <path class="cls-11" d="M73.58,14.04c1.42-.22,1.48,2.05,0,1.86-1.02-.13-.92-1.71,0-1.86Z"/>
              <path class="cls-11" d="M71.75,12.89c1.1-.12,1.21,1.52.3,1.67-1.25.2-1.31-1.55-.3-1.67Z"/>
              <path class="cls-11" d="M73.85,12.16c1.12-.19,1.1,1.59-.05,1.39-.71-.12-.64-1.28.05-1.39Z"/>
              <path class="cls-11" d="M72.43,11.61c.77-.07.83,1.06.16,1.15-.84.11-.87-1.08-.16-1.15Z"/>
            </g>
            <g>
              <path class="cls-18" d="M73.56,28.08c-.35,0-.69.04-1.04.03,2.64-.5,3.24-1.85,3.43-1.97,2.21-.61,4.58-2.48,6.24-4.04.66-.68,2.39-1.44,2.32-2.49,0-.13-.09-.3-.16-.41v-.05c.45-1.03.1-2.39-.52-3.29-2.04-2.97-7.17-2.72-9.45.49-.75,1.06-.84,2.03-2.47,3.43-1.48,1.26-3.42,2.02-5.38,1.94-.25-.01-.5-.06-.75-.08-.15-.01-.28-.05-.44-.05.23-.16.54-.21.74-.42.11-.12.34-.63.26-.7-.8.25-1.44-.03-1.83.82.16-1.26-.75-1.69-1.82-1.95.43.93-.59,1.55.82,2.51-1,.26-.87,1.33-1.67,1.78,1.25.3,1.98.48,2.73-.78.14.13,1.1.72,1.34.85.43.23.86.43,1.31.6-.05.09-.13.17-.22.19-.33-.1.36.24.7.38,1.7.72,3.54,1.08,5.35,1.34.07.06-.45,1.65-.61,1.8-.03,0-.03.02-.05.03-.04,0-.08,0-.12.03-.03-.02-.04-.03-.04-.07,0-.08.49-1.31.51-1.54-2.92-.38-5.69-1.36-8.03-3.17-.19,0-.97,1.68-3.39.3,1.03-.2.92-1.19,1.68-1.82-.89-.7-.25-1.83-.63-2.9,1.02.5,1.96.54,2.42,1.71.61-.19,1.33-.19,1.8-.6.04.65.06,1.02-.45,1.46,1.98.34,4.2-.57,5.7-1.87,1.8-1.57,1.72-3,3.39-4.45,2.13-1.86,5.83-2.19,8.03-.27,1.17,1.02,1.9,2.79,1.38,4.3.62,1.34-1.1,2.22-1.98,2.96-2.12,1.79-3.83,3.41-6.58,4.29-.37.55-1.45,1.4-2.05,1.58-.2.06-.48.02-.45.11Z"/>
              <path class="cls-13" d="M82.19,22.1c-1.66,1.56-4.04,3.43-6.24,4.04-.19.12-.78,1.47-3.43,1.97-.06.01-.1.04-.16.03-.03-.06.04-.04.03-.11.02,0,.03-.02.05-.03.11-.03.13-.06.19-.08,2.6-.91,3.24-1.48,4.14-4.21h.04c0,.1-.16.73-.07.74,1.65-.92,2.99-2.27,4.68-3.11-.06.31.27,0,.44.03-1.76.81-3.45,2.45-5.08,3.51,2.16-.82,3.31-2.2,5.08-3.37-.02.11-.03.17.04.27l.33-.22v.05c-1.17.71-2.19,1.63-3.31,2.43-.66.47-1.36.87-2.01,1.35l.04.04c2.37-.92,3.88-2.52,5.78-4.1.05-.01.11-.08.14-.04-.03.05.02.15,0,.19-.02.04-.47.42-.68.61Z"/>
              <path class="cls-12" d="M65.34,21.58c-.18,0-.74.1-.82.29-.15.34.29.41-.03.9,0,.08.08.06.08.07-.75,1.25-1.48,1.08-2.73.78.8-.44.67-1.52,1.67-1.78-1.41-.97-.38-1.59-.82-2.51,1.06.26,1.97.69,1.82,1.95.39-.84,1.03-.57,1.83-.82.09.07-.15.58-.26.7-.2.21-.51.26-.74.42Z"/>
              <path class="cls-13" d="M71.76,25.19c2.04.25,1.54.11-.18-.25-.3-.37,1.28-.05,1.9-.14.01.01.05-.04.05.07,0,.07-.36,1.18-.42,1.32-.46-.15-.96-.19-1.45-.25-.19-.13.15-.12-.18-.25.49.06.99.11,1.47.12-1.91-.52-3.88-.83-5.74-1.54-.45-.17-.88-.37-1.31-.6v-.05c1.76.95,3.74,1.36,5.67,1.8l.18-.25Z"/>
              <path class="cls-8" d="M65.34,21.58c.15,0,.29.04.44.05-.17.06-1.08.27-1.12.42-.06.19.13.26.14.27,0,.03-.11.28-.11.3.01.06.88.6,1,.67,1.59.92,4.26,1.67,6.08,1.88l-.18.25c-1.93-.44-3.91-.85-5.65-1.8v.05c-.25-.13-1.22-.71-1.35-.85,0,0-.08.01-.08-.07.32-.49-.13-.56.03-.9.08-.19.64-.29.82-.29Z"/>
              <path class="cls-13" d="M82.19,22.1c.21-.2.66-.57.68-.61.02-.04-.03-.14,0-.19-.03-.04-.09.03-.14.04-.13.03-.34.18-.49.27v-.05q-.18.11-.34.22c-.07-.1-.06-.16-.04-.27.53-.35.85-.53,0-.14-.17-.03-.5.29-.44-.03,1.05-.52,2.22-.89,3.09-1.72.07,1.05-1.66,1.8-2.32,2.49Z"/>
              <path class="cls-17" d="M71.49,25.7c-1.16-.15-2.56-.52-3.67-.9-.24-.08-.63-.27-.81-.33.09-.02.17-.1.22-.19,1.86.72,3.83,1.03,5.74,1.54-.49-.02-.99-.06-1.47-.12Z"/>
              <path class="cls-13" d="M84.35,19.15v.05c-.5.33-.98.71-1.52.98-.23.11-1.96.79-2.1.82-.17.03-.16-.13-.05-.22.1-.08,1.82-.66,2.38-.98.55-.32,1.2-1.05,1.3-.66Z"/>
              <path class="cls-18" d="M82.74,21.33c-1.9,1.58-3.41,3.18-5.78,4.1l-.04-.04c.64-.48,1.35-.88,2.01-1.35,1.12-.8,2.14-1.72,3.32-2.43.15-.09.36-.24.49-.27Z"/>
              <path class="cls-17" d="M81.87,21.5c-1.77,1.17-2.92,2.55-5.08,3.37,1.63-1.06,3.32-2.7,5.08-3.51.85-.39.53-.22,0,.14Z"/>
              <g>
                <path class="cls-8" d="M72.63,27.92c-.06.02-.08.05-.19.08.17-.15.69-1.74.61-1.8-1.82-.26-3.66-.62-5.35-1.34-.34-.14-1.02-.48-.7-.38.18.06.57.25.81.33,1.11.38,2.51.75,3.67.9.33.13-.01.12.18.25.48.05.99.1,1.45.25.06-.15.43-1.25.42-1.32,0-.11-.04-.06-.05-.07-.14-.13-.69-.1-.93-.18,1.61-.52,1.35-.98.93.49-.27.94-.43,1.91-.85,2.8Z"/>
                <path class="cls-13" d="M73.71,24.23l-.16.52-.72-.12c.28-.19.73-.05.89-.4Z"/>
              </g>
              <g>
                <path class="cls-12" d="M84.35,19.15c-.1-.39-.75.34-1.3.66-.56.32-2.28.9-2.38.98-.11.09-.11.25.05.22.14-.03,1.88-.71,2.1-.82.54-.27,1.02-.65,1.52-.98.08.11.15.28.16.41-.87.84-2.03,1.2-3.09,1.72-1.7.84-3.03,2.2-4.68,3.11-.09-.01.06-.64.07-.72h-.04c-.9,2.71-1.53,3.28-4.14,4.19.42-.89.58-1.86.85-2.8.42-1.48.68-1.01-.93-.49.24.07.78.05.93.18-.62.08-2.2-.23-1.9.14,1.72.35,2.21.49.18.25-1.82-.22-4.49-.97-6.08-1.88-.12-.07-.99-.61-1-.67,0-.02.12-.27.11-.3,0-.02-.19-.08-.14-.27.04-.15.95-.37,1.12-.42.25.02.51.07.75.08,1.96.08,3.9-.67,5.38-1.94,1.63-1.4,1.72-2.37,2.47-3.43,2.28-3.21,7.41-3.46,9.45-.49.62.9.96,2.27.52,3.29Z"/>
                <g>
                  <path class="cls-18" d="M77.46,19.8c1.39-.14,1.5,1.81.25,1.91-1.27.1-1.5-1.79-.25-1.91Z"/>
                  <g>
                    <path class="cls-13" d="M77.51,20.16c.89-.07.93,1.07.27,1.2-.94.19-1.15-1.14-.27-1.2Z"/>
                    <path class="cls-18" d="M77.51,20.24c.42-.1.27.58-.05.41-.15-.08-.11-.37.05-.41Z"/>
                  </g>
                </g>
              </g>
            </g>
          </g>
          <g>
            <path class="cls-4" d="M79.94,48.49c-1.32.05-2.58-.36-3.57-1.24l-.98.15c.24.26.73.65.72,1.03,0,.2-.2.43-.39.5-.9.32-2.89-.34-3.51-1.16-1.31.23-3.73.35-4.95-.06-.13-.04-.27-.14-.4-.19.08,1.05-1.26.73-1.01-.04.11-.33.34-.26.58-.15.02.01.08.11.14.07.01-.05-.1-.05-.14-.07-.77-.54-1.29-1.34-1.65-2.19-.65-.48-2.28-1.72-1.63-2.65.12-.16.47-.35.65-.45.49-.28,3.6-1.75,4.3-2.07,1.38-.61,2.78-1.19,4.24-1.57.63-.98,1.56-2.84,2.56-3.42.94-.54,2.11-.42,2,.45-.01.1-.6,1.37-.72,1.82-.13.49-.17.99-.25,1.49,2.06.8,3.72,2.3,5.39,3.71l.7-.21c-.24-.4-1.64-1.7-1.68-1.82-.42-1.12,2.53-.72,3.24-.26.38-.57.82-1.13,1.01-1.81-.56-.51.45-1.2.94-.41.56.91.03,3.41-.5,4.35.59,1.22,1.78,4.24-.87,2.66l-2.07.03c-.41.32-.84.64-1.32.85-.03.06.54.61-.57.92,1.67.65,1.67,1.65-.28,1.72Z"/>
            <g>
              <g>
                <path class="cls-10" d="M74.44,47.08c.06,0,.13-.02.18.04.16.64.88,1.08.88,1.16,0,.19-1.24,0-1.7-.18-.4-.16-.81-.49-1.12-.79.4-.01,1.6-.24,1.75-.23Z"/>
                <path class="cls-10" d="M79.86,45.43c.19.73.74.77.15.88-.55.11-.75-.26-.95-.72.12-.02.71-.14.8-.17Z"/>
                <g>
                  <path class="cls-20" d="M75.56,45.21c.26.36.48.77.77,1.1-2.05.46-9.01,1.97-10.09-.03.69.54,3.16.37,4.04.25.9-.13,2.33-.52,3.11-.96.28-.16,1-.74.28-.08-.47.42-1.06.79-1.65,1.02,1.19-.3,2.45-.66,3.54-1.3Z"/>
                  <path class="cls-10" d="M77.87,44.96c.11.26.23.5.39.74.96,1.52,2.61,1.83,2.59,2-1.57.48-3.44-.16-4.52-1.39-.29-.34-.51-.74-.77-1.1.66-.36,1.42-.46,2.14-.66h.07c.03.14.06.29.11.41Z"/>
                  <path class="cls-20" d="M82.75,43.56c-.82.89-1.71,1.56-2.89,1.87-.09.02-.68.14-.8.17-.19.03-.57.02-.8.11-.15-.24-.28-.48-.39-.74,2.01,0,3.18-.4,4.88-1.41Z"/>
                  <g>
                    <path class="cls-10" d="M83.14,43.09c-.61.4-1.11.74-1.83.96-.08-.03,0-.53-.07-.83-.02-.09,0-.18-.06-.03-.17.42-.24.96-.68,1.21-.08-.02-.11-.97-.15-1.12h-.06c-.1.44-.25.86-.45,1.25l-.41-2.2c-.09.32-.37,2.36-.88,2.12-.1-.05-.26-1.98-.39-2.23-.05.28-.05.57-.1.84-.03.17-.31,1.42-.48,1.34-.06-.03-.14-.9-.23-1.34-.1-.45-.24-.89-.34-1.34.01.9-.22,1.76-.48,2.6h-.06c-.07-.7-.22-1.38-.43-2.05.03.61-.12,2.4-.7,2.11-.13-.95-.42-1.88-.76-2.77.2,1.11.1,2.33-.5,3.31.38-1.47-1.1-2.42-2.4-2.26.03-.89-1.05-1.68-1.85-1.13-.37.26-.73,1.16-.34,1.24.1.02.34-.02.48,0,.28-.83.92-.51,1.31.06-.72.23-1.18-.06-1.89,0-.27.02-1.38.31-1.96.39-1.09.15-2.74.31-3.76-.14,0,0,0-.04-.06-.03,0-.02-.08-.12-.11-.21,3-1.59,6.07-3.11,9.33-4.09.76-1.3,1.73-3.66,3.5-3.56-.52,1.24-.97,2.53-.87,3.9.42.21.87.37,1.28.59,1.85.99,2.82,2.06,4.44,3.22.28-.02,1.53-.2,1.5-.54-.03-.42-1.27-1.79-1.68-2.09.92-.14,1.85.11,2.69.48.5-.52.98-1.1,1.25-1.78.1-.26.22-1.13.3-.3.11,1.1-.32,2.6-.77,3.61.4.8.72,1.64.83,2.54-.94-.27-1.64-.99-2.01-1.87-.03-.02-.1.08-.17.12Z"/>
                    <path class="cls-9" d="M72.76,39.2c.72-.07,1.24.31,1.83.65.73,1.4.09-.28-1.23-.23-.1-.24-.38-.3-.61-.36v-.06Z"/>
                    <path class="cls-7" d="M68.24,42.65c.21-.05.26.29.03.25-.14-.03-.14-.22-.03-.25Z"/>
                    <path class="cls-9" d="M72.05,39.86c.22.22.41.45.52.74-.04.06-.21-.31-.23-.34-.18-.24-.39-.36-.29-.4Z"/>
                    <path class="cls-5" d="M81.24,43.23l-.06-.03c.06-.15.04-.06.06.03Z"/>
                  </g>
                  <g>
                    <path class="cls-15" d="M70.9,43.58c-.07.11.06,0,.26.03.07,0,.19.06.26.08.03.04.03.08.03.08-.22.06-.29.16-.3.17-.08.05-.05.05-.06.06-.02.01-.44.13-.47.28-.1-.02-.08.02-.11.03-.17.06-.53.26-.83.36-.03,0-.06.02-.08.03-.29.09-.61.11-.88.22-.02,0-.07-.07-.08,0l-.03.03c-.07-.06-.08,0-.11,0-.31.02-.61.04-.92.06-.02,0-.06.05-.07.06-.06,0-.1,0-.17,0-.17,0-.76-.09-.88,0,0,0,0,.03-.03.03.06-.09-.46-.11-.55-.11-.03,0-.06,0-.06.03-.04-.05-.15-.09-.19-.03-.72-.3-.96-.42-1.46-1.02,1.31.66,3.27.69,4.67.36.7-.17,1.35-.57,2.05-.72Z"/>
                    <path class="cls-4" d="M71.29,42.84c-.39-.56-1.03-.89-1.31-.06-.14-.02-.38.02-.48,0,.12-1.25,1.65-1.06,1.96.01-.01.02-.14.03-.17.04Z"/>
                    <g>
                      <path class="cls-6" d="M81.18,43.2l.06.03c.06.29-.02.8.07.83.73-.23,1.22-.57,1.83-.96-.11.17-.25.32-.39.47-1.7,1-2.86,1.41-4.88,1.41-.05-.12-.08-.27-.11-.4h-.07c-.72.18-1.47.29-2.14.65-1.1.64-2.35,1-3.54,1.3.59-.23,1.18-.6,1.65-1.02.72-.66,0-.08-.28.08-.78.45-2.22.84-3.11.96-.88.13-3.35.29-4.04-.25-.11-.08-.21-.22-.28-.33.1-.05.37.14.54.19.55.17,1.71.15,2.23-.03.03,0,.14-.06.12-.11.08,0,.09,0,.17,0,.73-.02.79-.17,1.1-.3.04-.02.07-.04.11-.06.46-.22.94-.43,1.19-.91.02-.04.03,0,.06-.08.11-.28.14-.61-.03-.88,0,0,0-.04-.03-.08.41.13.74.43.98.77-.38-.8-.61-1.07-1.5-.88-.7.15-1.35.55-2.05.72-1.4.33-3.36.3-4.67-.36-.09-.11-.1-.12-.19-.25.68.65.67-.42.01-.14l-.32-.47c1.02.45,2.67.29,3.76.14.58-.08,1.69-.36,1.96-.39.71-.06,1.17.23,1.89,0,.03,0,.15-.02.17-.04-.31-1.08-1.83-1.26-1.96-.01-.38-.08-.03-.99.34-1.24.79-.55,1.88.24,1.85,1.13,1.3-.16,2.78.79,2.4,2.26.59-.98.7-2.2.5-3.31.34.89.62,1.82.76,2.77.58.29.73-1.5.7-2.11.2.67.36,1.36.43,2.05h.06c.27-.85.49-1.71.48-2.6.11.45.25.89.34,1.34.09.43.17,1.31.23,1.34.17.08.45-1.17.48-1.34.05-.27.05-.57.1-.84.13.25.28,2.18.39,2.23.52.24.79-1.8.88-2.12l.41,2.2c.2-.4.36-.82.45-1.25h.06c.04.15.07,1.1.15,1.12.44-.25.51-.79.68-1.21Z"/>
                      <path class="cls-16" d="M63.68,43.09l.32.47c.65-.29.67.79-.01.14-.14-.21-.26-.4-.36-.63.06-.01.05.03.06.03Z"/>
                      <path class="cls-15" d="M64.96,43.61c.41-.09.72.3.28.39-.9.17-.53-.33-.28-.39Z"/>
                      <path class="cls-19" d="M71.42,43.69c-.07-.02-.19-.07-.26-.08-.2-.02-.33.09-.26-.03.89-.19,1.12.08,1.5.88-.24-.35-.57-.64-.98-.77Z"/>
                    </g>
                  </g>
                  <g>
                    <path class="cls-10" d="M70.13,45.71c-.31.14-.37.28-1.1.3l.34-.44c.49.18.86-.07.76.14Z"/>
                    <path class="cls-10" d="M71.48,44.66c-.5-.15-.09-.28-.33-.72.02,0,.09-.1.3-.17.17.27.14.6.03.88Z"/>
                    <path class="cls-10" d="M71.42,44.74c-.25.48-.72.69-1.19.91l.26-.5c.63.37.59-.45.69-.5.01,0,.19.07.23.08Z"/>
                    <path class="cls-10" d="M68.61,44.93l.03-.03c.53.74.94.37.29,1.07-.96-.36-.51-.25-.32-1.05Z"/>
                    <path class="cls-10" d="M68.5,44.93l-.34.58-.65-.47s.05-.05.07-.06c.31-.02.61-.04.92-.06Z"/>
                    <path class="cls-10" d="M67.35,45.04c-.18.88-.46.36-.88,0,.12-.09.72,0,.88,0Z"/>
                    <path class="cls-10" d="M70.52,44.3c.15.09.02.07,0,.15-.02.08-.06.46-.12.48l-.7-.28c.29-.09.65-.3.83-.36Z"/>
                    <path class="cls-10" d="M69.61,44.69l-.29.61-.59-.39c.27-.11.59-.13.88-.22Z"/>
                    <path class="cls-10" d="M71.09,44c.22.82-.27.31-.47.28.03-.15.44-.26.47-.28Z"/>
                    <g>
                      <path class="cls-10" d="M65.83,44.99s.13.31.18.3c.12-.01-.11-.27-.12-.33.09,0,.61.02.55.11.02.34-.38,0-.41.4-.04.43.42.38.47.08.02-.13-.18-.68.44.11-.12.59.22.77.15.15.46.51.57.44.12-.1-.01-.09.2-.16.23-.62l.62.59c-.13.27-.46.45-.26.51.15.04.2-.27.33-.41.33.23.38.2.73.22.02.05-.1.1-.12.11-.52.18-1.68.19-2.23.03-.17-.05-.44-.24-.54-.19-.06-.11.09,0,.03-.12-.06-.11-.39-.17-.36-.87.04-.07.15-.02.19.03Z"/>
                      <path class="cls-4" d="M65.88,44.96c.01.06.25.32.12.33-.05,0-.17-.29-.18-.3,0-.04.02-.03.06-.03Z"/>
                      <path class="cls-4" d="M66.53,45.76c.21-.06.21.36-.03.28-.1-.03-.06-.25.03-.28Z"/>
                    </g>
                    <g>
                      <path class="cls-4" d="M71.15,43.94c.24.43-.17.57.33.72-.03.07-.04.05-.06.08-.04-.02-.22-.09-.23-.08-.1.05-.06.87-.69.5l-.26.5s-.07.04-.11.06c.1-.21-.27.04-.76-.14l-.34.44c-.07,0-.08,0-.17,0-.35-.02-.4,0-.73-.22-.13.14-.18.46-.33.41-.2-.06.13-.24.26-.51l-.62-.59c-.04.47-.25.53-.23.62.44.54.34.6-.12.1.06.62-.27.44-.15-.15-.62-.79-.42-.24-.44-.11-.04.29-.51.35-.47-.08.04-.4.43-.06.41-.4.03,0,.03-.03.03-.03.43.36.7.88.88,0,.06,0,.11,0,.17,0l.65.47.34-.58s.04-.06.11,0c-.19.8-.65.69.32,1.05.65-.7.24-.33-.29-1.07.02-.07.07,0,.08,0l.59.39.29-.61s.05-.02.08-.03l.7.28c.06-.02.1-.41.12-.48.02-.09.15-.06,0-.15.03,0,0-.05.11-.03.2.04.68.54.47-.28,0,0-.03,0,.06-.06Z"/>
                      <path class="cls-10" d="M69.73,44.8s.64.28.65.32c-.14.36-.13.53-.59.45-.56-.09-.15-.75-.06-.77Z"/>
                      <path class="cls-10" d="M70.64,44.38c.27.19.64.21.34.62-.17.24-.61.23-.34-.62Z"/>
                    </g>
                  </g>
                </g>
              </g>
              <path class="cls-14" d="M66.44,47.33s.15.01.14.07c-.06.04-.12-.06-.14-.07Z"/>
            </g>
          </g>
          <text class="cls-1" transform="translate(88.71 46.64)"><tspan x="0" y="0">: 50</tspan></text>
        </g>
      </g>
      <g>
        <text class="cls-1" transform="translate(32.3 138.24)"><tspan x="0" y="0">: 0</tspan></text>
        <g>
          <g>
            <g>
              <path class="cls-11" d="M17.87,128.56c1.42-.22,1.48,2.05,0,1.86-1.02-.13-.92-1.71,0-1.86Z"/>
              <path class="cls-11" d="M16.04,127.42c1.1-.12,1.21,1.52.3,1.67-1.25.2-1.31-1.55-.3-1.67Z"/>
              <path class="cls-11" d="M18.14,126.68c1.12-.19,1.1,1.59-.05,1.39-.71-.12-.64-1.28.05-1.39Z"/>
              <path class="cls-11" d="M16.72,126.13c.77-.07.83,1.06.16,1.15-.84.11-.87-1.08-.16-1.15Z"/>
            </g>
            <g>
              <path class="cls-18" d="M17.86,142.6c-.35,0-.69.04-1.04.03,2.64-.5,3.24-1.85,3.43-1.97,2.21-.61,4.58-2.48,6.24-4.04.66-.68,2.39-1.44,2.32-2.49,0-.13-.09-.3-.16-.41v-.05c.45-1.03.1-2.39-.52-3.29-2.04-2.97-7.17-2.72-9.45.49-.75,1.06-.84,2.03-2.47,3.43-1.48,1.26-3.42,2.02-5.38,1.94-.25-.01-.5-.06-.75-.08-.15-.01-.28-.05-.44-.05.23-.16.54-.21.74-.42.11-.12.34-.63.26-.7-.8.25-1.44-.03-1.83.82.16-1.26-.75-1.69-1.82-1.95.43.93-.59,1.55.82,2.51-1,.26-.87,1.33-1.67,1.78,1.25.3,1.98.48,2.73-.78.14.13,1.1.72,1.34.85.43.23.86.43,1.31.6-.05.09-.13.17-.22.19-.33-.1.36.24.7.38,1.7.72,3.54,1.08,5.35,1.34.07.06-.45,1.65-.61,1.8-.03,0-.03.02-.05.03-.04,0-.08,0-.12.03-.03-.02-.04-.03-.04-.07,0-.08.49-1.31.51-1.54-2.92-.38-5.69-1.36-8.03-3.17-.19,0-.97,1.68-3.39.3,1.03-.2.92-1.19,1.68-1.82-.89-.7-.25-1.83-.63-2.9,1.02.5,1.96.54,2.42,1.71.61-.19,1.33-.19,1.8-.6.04.65.06,1.02-.45,1.46,1.98.34,4.2-.57,5.7-1.87,1.8-1.57,1.72-3,3.39-4.45,2.13-1.86,5.83-2.19,8.03-.27,1.17,1.02,1.9,2.79,1.38,4.3.62,1.34-1.1,2.22-1.98,2.96-2.12,1.79-3.83,3.41-6.58,4.29-.37.55-1.45,1.4-2.05,1.58-.2.06-.48.02-.45.11Z"/>
              <path class="cls-13" d="M26.49,136.62c-1.66,1.56-4.04,3.43-6.24,4.04-.19.12-.78,1.47-3.43,1.97-.06.01-.1.04-.16.03-.03-.06.04-.04.03-.11.02,0,.03-.02.05-.03.11-.03.13-.06.19-.08,2.6-.91,3.24-1.48,4.14-4.21h.04c0,.1-.16.73-.07.74,1.65-.92,2.99-2.27,4.68-3.11-.06.31.27,0,.44.03-1.76.81-3.45,2.45-5.08,3.51,2.16-.82,3.31-2.2,5.08-3.37-.02.11-.03.17.04.27l.33-.22v.05c-1.17.71-2.19,1.63-3.31,2.43-.66.47-1.36.87-2.01,1.35l.04.04c2.37-.92,3.88-2.52,5.78-4.1.05-.01.11-.08.14-.04-.03.05.02.15,0,.19-.02.04-.47.42-.68.61Z"/>
              <path class="cls-12" d="M9.63,136.1c-.18,0-.74.1-.82.29-.15.34.29.41-.03.9,0,.08.08.06.08.07-.75,1.25-1.48,1.08-2.73.78.8-.44.67-1.52,1.67-1.78-1.41-.97-.38-1.59-.82-2.51,1.06.26,1.97.69,1.82,1.95.39-.84,1.03-.57,1.83-.82.09.07-.15.58-.26.7-.2.21-.51.26-.74.42Z"/>
              <path class="cls-13" d="M16.05,139.71c2.04.25,1.54.11-.18-.25-.3-.37,1.28-.05,1.9-.14.01.01.05-.04.05.07,0,.07-.36,1.18-.42,1.32-.46-.15-.96-.19-1.45-.25-.19-.13.15-.12-.18-.25.49.06.99.11,1.47.12-1.91-.52-3.88-.83-5.74-1.54-.45-.17-.88-.37-1.31-.6v-.05c1.76.95,3.74,1.36,5.67,1.8l.18-.25Z"/>
              <path class="cls-8" d="M9.63,136.1c.15,0,.29.04.44.05-.17.06-1.08.27-1.12.42-.06.19.13.26.14.27,0,.03-.11.28-.11.3.01.06.88.6,1,.67,1.59.92,4.26,1.67,6.08,1.88l-.18.25c-1.93-.44-3.91-.85-5.65-1.8v.05c-.25-.13-1.22-.71-1.35-.85,0,0-.08.01-.08-.07.32-.49-.13-.56.03-.9.08-.19.64-.29.82-.29Z"/>
              <path class="cls-13" d="M26.49,136.62c.21-.2.66-.57.68-.61.02-.04-.03-.14,0-.19-.03-.04-.09.03-.14.04-.13.03-.34.18-.49.27v-.05q-.18.11-.34.22c-.07-.1-.06-.16-.04-.27.53-.35.85-.53,0-.14-.17-.03-.5.29-.44-.03,1.05-.52,2.22-.89,3.09-1.72.07,1.05-1.66,1.8-2.32,2.49Z"/>
              <path class="cls-17" d="M15.78,140.23c-1.16-.15-2.56-.52-3.67-.9-.24-.08-.63-.27-.81-.33.09-.02.17-.1.22-.19,1.86.72,3.83,1.03,5.74,1.54-.49-.02-.99-.06-1.47-.12Z"/>
              <path class="cls-13" d="M28.65,133.67v.05c-.5.33-.98.71-1.52.98-.23.11-1.96.79-2.1.82-.17.03-.16-.13-.05-.22.1-.08,1.82-.66,2.38-.98.55-.32,1.2-1.05,1.3-.66Z"/>
              <path class="cls-18" d="M27.03,135.86c-1.9,1.58-3.41,3.18-5.78,4.1l-.04-.04c.64-.48,1.35-.88,2.01-1.35,1.12-.8,2.14-1.72,3.32-2.43.15-.09.36-.24.49-.27Z"/>
              <path class="cls-17" d="M26.16,136.02c-1.77,1.17-2.92,2.55-5.08,3.37,1.63-1.06,3.32-2.7,5.08-3.51.85-.39.53-.22,0,.14Z"/>
              <g>
                <path class="cls-8" d="M16.93,142.44c-.06.02-.08.05-.19.08.17-.15.69-1.74.61-1.8-1.82-.26-3.66-.62-5.35-1.34-.34-.14-1.02-.48-.7-.38.18.06.57.25.81.33,1.11.38,2.51.75,3.67.9.33.13-.01.12.18.25.48.05.99.1,1.45.25.06-.15.43-1.25.42-1.32,0-.11-.04-.06-.05-.07-.14-.13-.69-.1-.93-.18,1.61-.52,1.35-.98.93.49-.27.94-.43,1.91-.85,2.8Z"/>
                <path class="cls-13" d="M18.01,138.75l-.16.52-.72-.12c.28-.19.73-.05.89-.4Z"/>
              </g>
              <g>
                <path class="cls-12" d="M28.65,133.67c-.1-.39-.75.34-1.3.66-.56.32-2.28.9-2.38.98-.11.09-.11.25.05.22.14-.03,1.88-.71,2.1-.82.54-.27,1.02-.65,1.52-.98.08.11.15.28.16.41-.87.84-2.03,1.2-3.09,1.72-1.7.84-3.03,2.2-4.68,3.11-.09-.01.06-.64.07-.72h-.04c-.9,2.71-1.53,3.28-4.14,4.19.42-.89.58-1.86.85-2.8.42-1.48.68-1.01-.93-.49.24.07.78.05.93.18-.62.08-2.2-.23-1.9.14,1.72.35,2.21.49.18.25-1.82-.22-4.49-.97-6.08-1.88-.12-.07-.99-.61-1-.67,0-.02.12-.27.11-.3,0-.02-.19-.08-.14-.27.04-.15.95-.37,1.12-.42.25.02.51.07.75.08,1.96.08,3.9-.67,5.38-1.94,1.63-1.4,1.72-2.37,2.47-3.43,2.28-3.21,7.41-3.46,9.45-.49.62.9.96,2.27.52,3.29Z"/>
                <g>
                  <path class="cls-18" d="M21.75,134.33c1.39-.14,1.5,1.81.25,1.91-1.27.1-1.5-1.79-.25-1.91Z"/>
                  <g>
                    <path class="cls-13" d="M21.8,134.68c.89-.07.93,1.07.27,1.2-.94.19-1.15-1.14-.27-1.2Z"/>
                    <path class="cls-18" d="M21.8,134.77c.42-.1.27.58-.05.41-.15-.08-.11-.37.05-.41Z"/>
                  </g>
                </g>
              </g>
            </g>
          </g>
          <g>
            <path class="cls-4" d="M24.23,163.01c-1.32.05-2.58-.36-3.57-1.24l-.98.15c.24.26.73.65.72,1.03,0,.2-.2.43-.39.5-.9.32-2.89-.34-3.51-1.16-1.31.23-3.73.35-4.95-.06-.13-.04-.27-.14-.4-.19.08,1.05-1.26.73-1.01-.04.11-.33.34-.26.58-.15.02.01.08.11.14.07.01-.05-.1-.05-.14-.07-.77-.54-1.29-1.34-1.65-2.19-.65-.48-2.28-1.72-1.63-2.65.12-.16.47-.35.65-.45.49-.28,3.6-1.75,4.3-2.07,1.38-.61,2.78-1.19,4.24-1.57.63-.98,1.56-2.84,2.56-3.42.94-.54,2.11-.42,2,.45-.01.1-.6,1.37-.72,1.82-.13.49-.17.99-.25,1.49,2.06.8,3.72,2.3,5.39,3.71l.7-.21c-.24-.4-1.64-1.7-1.68-1.82-.42-1.12,2.53-.72,3.24-.26.38-.57.82-1.13,1.01-1.81-.56-.51.45-1.2.94-.41.56.91.03,3.41-.5,4.35.59,1.22,1.78,4.24-.87,2.66l-2.07.03c-.41.32-.84.64-1.32.85-.03.06.54.61-.57.92,1.67.65,1.67,1.65-.28,1.72Z"/>
            <g>
              <g>
                <path class="cls-10" d="M18.74,161.61c.06,0,.13-.02.18.04.16.64.88,1.08.88,1.16,0,.19-1.24,0-1.7-.18-.4-.16-.81-.49-1.12-.79.4-.01,1.6-.24,1.75-.23Z"/>
                <path class="cls-10" d="M24.15,159.95c.19.73.74.77.15.88-.55.11-.75-.26-.95-.72.12-.02.71-.14.8-.17Z"/>
                <g>
                  <path class="cls-20" d="M19.85,159.73c.26.36.48.77.77,1.1-2.05.46-9.01,1.97-10.09-.03.69.54,3.16.37,4.04.25.9-.13,2.33-.52,3.11-.96.28-.16,1-.74.28-.08-.47.42-1.06.79-1.65,1.02,1.19-.3,2.45-.66,3.54-1.3Z"/>
                  <path class="cls-10" d="M22.17,159.49c.11.26.23.5.39.74.96,1.52,2.61,1.83,2.59,2-1.57.48-3.44-.16-4.52-1.39-.29-.34-.51-.74-.77-1.1.66-.36,1.42-.46,2.14-.66h.07c.03.14.06.29.11.41Z"/>
                  <path class="cls-20" d="M27.05,158.08c-.82.89-1.71,1.56-2.89,1.87-.09.02-.68.14-.8.17-.19.03-.57.02-.8.11-.15-.24-.28-.48-.39-.74,2.01,0,3.18-.4,4.88-1.41Z"/>
                  <g>
                    <path class="cls-10" d="M27.43,157.61c-.61.4-1.11.74-1.83.96-.08-.03,0-.53-.07-.83-.02-.09,0-.18-.06-.03-.17.42-.24.96-.68,1.21-.08-.02-.11-.97-.15-1.12h-.06c-.1.44-.25.86-.45,1.25l-.41-2.2c-.09.32-.37,2.36-.88,2.12-.1-.05-.26-1.98-.39-2.23-.05.28-.05.57-.1.84-.03.17-.31,1.42-.48,1.34-.06-.03-.14-.9-.23-1.34-.1-.45-.24-.89-.34-1.34.01.9-.22,1.76-.48,2.6h-.06c-.07-.7-.22-1.38-.43-2.05.03.61-.12,2.4-.7,2.11-.13-.95-.42-1.88-.76-2.77.2,1.11.1,2.33-.5,3.31.38-1.47-1.1-2.42-2.4-2.26.03-.89-1.05-1.68-1.85-1.13-.37.26-.73,1.16-.34,1.24.1.02.34-.02.48,0,.28-.83.92-.51,1.31.06-.72.23-1.18-.06-1.89,0-.27.02-1.38.31-1.96.39-1.09.15-2.74.31-3.76-.14,0,0,0-.04-.06-.03,0-.02-.08-.12-.11-.21,3-1.59,6.07-3.11,9.33-4.09.76-1.3,1.73-3.66,3.5-3.56-.52,1.24-.97,2.53-.87,3.9.42.21.87.37,1.28.59,1.85.99,2.82,2.06,4.44,3.22.28-.02,1.53-.2,1.5-.54-.03-.42-1.27-1.79-1.68-2.09.92-.14,1.85.11,2.69.48.5-.52.98-1.1,1.25-1.78.1-.26.22-1.13.3-.3.11,1.1-.32,2.6-.77,3.61.4.8.72,1.64.83,2.54-.94-.27-1.64-.99-2.01-1.87-.03-.02-.1.08-.17.12Z"/>
                    <path class="cls-9" d="M17.05,153.73c.72-.07,1.24.31,1.83.65.73,1.4.09-.28-1.23-.23-.1-.24-.38-.3-.61-.36v-.06Z"/>
                    <path class="cls-7" d="M12.53,157.17c.21-.05.26.29.03.25-.14-.03-.14-.22-.03-.25Z"/>
                    <path class="cls-9" d="M16.34,154.39c.22.22.41.45.52.74-.04.06-.21-.31-.23-.34-.18-.24-.39-.36-.29-.4Z"/>
                    <path class="cls-5" d="M25.53,157.75l-.06-.03c.06-.15.04-.06.06.03Z"/>
                  </g>
                  <g>
                    <path class="cls-15" d="M15.19,158.11c-.07.11.06,0,.26.03.07,0,.19.06.26.08.03.04.03.08.03.08-.22.06-.29.16-.3.17-.08.05-.05.05-.06.06-.02.01-.44.13-.47.28-.1-.02-.08.02-.11.03-.17.06-.53.26-.83.36-.03,0-.06.02-.08.03-.29.09-.61.11-.88.22-.02,0-.07-.07-.08,0l-.03.03c-.07-.06-.08,0-.11,0-.31.02-.61.04-.92.06-.02,0-.06.05-.07.06-.06,0-.1,0-.17,0-.17,0-.76-.09-.88,0,0,0,0,.03-.03.03.06-.09-.46-.11-.55-.11-.03,0-.06,0-.06.03-.04-.05-.15-.09-.19-.03-.72-.3-.96-.42-1.46-1.02,1.31.66,3.27.69,4.67.36.7-.17,1.35-.57,2.05-.72Z"/>
                    <path class="cls-4" d="M15.58,157.36c-.39-.56-1.03-.89-1.31-.06-.14-.02-.38.02-.48,0,.12-1.25,1.65-1.06,1.96.01-.01.02-.14.03-.17.04Z"/>
                    <g>
                      <path class="cls-6" d="M25.48,157.72l.06.03c.06.29-.02.8.07.83.73-.23,1.22-.57,1.83-.96-.11.17-.25.32-.39.47-1.7,1-2.86,1.41-4.88,1.41-.05-.12-.08-.27-.11-.4h-.07c-.72.18-1.47.29-2.14.65-1.1.64-2.35,1-3.54,1.3.59-.23,1.18-.6,1.65-1.02.72-.66,0-.08-.28.08-.78.45-2.22.84-3.11.96-.88.13-3.35.29-4.04-.25-.11-.08-.21-.22-.28-.33.1-.05.37.14.54.19.55.17,1.71.15,2.23-.03.03,0,.14-.06.12-.11.08,0,.09,0,.17,0,.73-.02.79-.17,1.1-.3.04-.02.07-.04.11-.06.46-.22.94-.43,1.19-.91.02-.04.03,0,.06-.08.11-.28.14-.61-.03-.88,0,0,0-.04-.03-.08.41.13.74.43.98.77-.38-.8-.61-1.07-1.5-.88-.7.15-1.35.55-2.05.72-1.4.33-3.36.3-4.67-.36-.09-.11-.1-.12-.19-.25.68.65.67-.42.01-.14l-.32-.47c1.02.45,2.67.29,3.76.14.58-.08,1.69-.36,1.96-.39.71-.06,1.17.23,1.89,0,.03,0,.15-.02.17-.04-.31-1.08-1.83-1.26-1.96-.01-.38-.08-.03-.99.34-1.24.79-.55,1.88.24,1.85,1.13,1.3-.16,2.78.79,2.4,2.26.59-.98.7-2.2.5-3.31.34.89.62,1.82.76,2.77.58.29.73-1.5.7-2.11.2.67.36,1.36.43,2.05h.06c.27-.85.49-1.71.48-2.6.11.45.25.89.34,1.34.09.43.17,1.31.23,1.34.17.08.45-1.17.48-1.34.05-.27.05-.57.1-.84.13.25.28,2.18.39,2.23.52.24.79-1.8.88-2.12l.41,2.2c.2-.4.36-.82.45-1.25h.06c.04.15.07,1.1.15,1.12.44-.25.51-.79.68-1.21Z"/>
                      <path class="cls-16" d="M7.97,157.61l.32.47c.65-.29.67.79-.01.14-.14-.21-.26-.4-.36-.63.06-.01.05.03.06.03Z"/>
                      <path class="cls-15" d="M9.25,158.14c.41-.09.72.3.28.39-.9.17-.53-.33-.28-.39Z"/>
                      <path class="cls-19" d="M15.72,158.22c-.07-.02-.19-.07-.26-.08-.2-.02-.33.09-.26-.03.89-.19,1.12.08,1.5.88-.24-.35-.57-.64-.98-.77Z"/>
                    </g>
                  </g>
                  <g>
                    <path class="cls-10" d="M14.42,160.23c-.31.14-.37.28-1.1.3l.34-.44c.49.18.86-.07.76.14Z"/>
                    <path class="cls-10" d="M15.77,159.18c-.5-.15-.09-.28-.33-.72.02,0,.09-.1.3-.17.17.27.14.6.03.88Z"/>
                    <path class="cls-10" d="M15.72,159.27c-.25.48-.72.69-1.19.91l.26-.5c.63.37.59-.45.69-.5.01,0,.19.07.23.08Z"/>
                    <path class="cls-10" d="M12.91,159.46l.03-.03c.53.74.94.37.29,1.07-.96-.36-.51-.25-.32-1.05Z"/>
                    <path class="cls-10" d="M12.8,159.46l-.34.58-.65-.47s.05-.05.07-.06c.31-.02.61-.04.92-.06Z"/>
                    <path class="cls-10" d="M11.64,159.57c-.18.88-.46.36-.88,0,.12-.09.72,0,.88,0Z"/>
                    <path class="cls-10" d="M14.81,158.82c.15.09.02.07,0,.15-.02.08-.06.46-.12.48l-.7-.28c.29-.09.65-.3.83-.36Z"/>
                    <path class="cls-10" d="M13.9,159.21l-.29.61-.59-.39c.27-.11.59-.13.88-.22Z"/>
                    <path class="cls-10" d="M15.39,158.52c.22.82-.27.31-.47.28.03-.15.44-.26.47-.28Z"/>
                    <g>
                      <path class="cls-10" d="M10.12,159.51s.13.31.18.3c.12-.01-.11-.27-.12-.33.09,0,.61.02.55.11.02.34-.38,0-.41.4-.04.43.42.38.47.08.02-.13-.18-.68.44.11-.12.59.22.77.15.15.46.51.57.44.12-.1-.01-.09.2-.16.23-.62l.62.59c-.13.27-.46.45-.26.51.15.04.2-.27.33-.41.33.23.38.2.73.22.02.05-.1.1-.12.11-.52.18-1.68.19-2.23.03-.17-.05-.44-.24-.54-.19-.06-.11.09,0,.03-.12-.06-.11-.39-.17-.36-.87.04-.07.15-.02.19.03Z"/>
                      <path class="cls-4" d="M10.18,159.49c.01.06.25.32.12.33-.05,0-.17-.29-.18-.3,0-.04.02-.03.06-.03Z"/>
                      <path class="cls-4" d="M10.83,160.28c.21-.06.21.36-.03.28-.1-.03-.06-.25.03-.28Z"/>
                    </g>
                    <g>
                      <path class="cls-4" d="M15.44,158.47c.24.43-.17.57.33.72-.03.07-.04.05-.06.08-.04-.02-.22-.09-.23-.08-.1.05-.06.87-.69.5l-.26.5s-.07.04-.11.06c.1-.21-.27.04-.76-.14l-.34.44c-.07,0-.08,0-.17,0-.35-.02-.4,0-.73-.22-.13.14-.18.46-.33.41-.2-.06.13-.24.26-.51l-.62-.59c-.04.47-.25.53-.23.62.44.54.34.6-.12.1.06.62-.27.44-.15-.15-.62-.79-.42-.24-.44-.11-.04.29-.51.35-.47-.08.04-.4.43-.06.41-.4.03,0,.03-.03.03-.03.43.36.7.88.88,0,.06,0,.11,0,.17,0l.65.47.34-.58s.04-.06.11,0c-.19.8-.65.69.32,1.05.65-.7.24-.33-.29-1.07.02-.07.07,0,.08,0l.59.39.29-.61s.05-.02.08-.03l.7.28c.06-.02.1-.41.12-.48.02-.09.15-.06,0-.15.03,0,0-.05.11-.03.2.04.68.54.47-.28,0,0-.03,0,.06-.06Z"/>
                      <path class="cls-10" d="M14.02,159.32s.64.28.65.32c-.14.36-.13.53-.59.45-.56-.09-.15-.75-.06-.77Z"/>
                      <path class="cls-10" d="M14.93,158.91c.27.19.64.21.34.62-.17.24-.61.23-.34-.62Z"/>
                    </g>
                  </g>
                </g>
              </g>
              <path class="cls-14" d="M10.73,161.86s.15.01.14.07c-.06.04-.12-.06-.14-.07Z"/>
            </g>
          </g>
          <text class="cls-1" transform="translate(33 161.16)"><tspan x="0" y="0">: 50</tspan></text>
        </g>
      </g>
      <rect class="cls-2" x="105.16" y="110.83" width="60.08" height="66.63" rx="10.02" ry="10.02"/>
      <g>
        <text class="cls-1" transform="translate(135.91 138.24)"><tspan x="0" y="0">: 50</tspan></text>
        <g>
          <g>
            <path class="cls-11" d="M121.48,128.56c1.42-.22,1.48,2.05,0,1.86-1.02-.13-.92-1.71,0-1.86Z"/>
            <path class="cls-11" d="M119.65,127.42c1.1-.12,1.21,1.52.3,1.67-1.25.2-1.31-1.55-.3-1.67Z"/>
            <path class="cls-11" d="M121.75,126.68c1.12-.19,1.1,1.59-.05,1.39-.71-.12-.64-1.28.05-1.39Z"/>
            <path class="cls-11" d="M120.33,126.13c.77-.07.83,1.06.16,1.15-.84.11-.87-1.08-.16-1.15Z"/>
          </g>
          <g>
            <path class="cls-18" d="M121.47,142.6c-.35,0-.69.04-1.04.03,2.64-.5,3.24-1.85,3.43-1.97,2.21-.61,4.58-2.48,6.24-4.04.66-.68,2.39-1.44,2.32-2.49,0-.13-.09-.3-.16-.41v-.05c.45-1.03.1-2.39-.52-3.29-2.04-2.97-7.17-2.72-9.45.49-.75,1.06-.84,2.03-2.47,3.43-1.48,1.26-3.42,2.02-5.38,1.94-.25-.01-.5-.06-.75-.08-.15-.01-.28-.05-.44-.05.23-.16.54-.21.74-.42.11-.12.34-.63.26-.7-.8.25-1.44-.03-1.83.82.16-1.26-.75-1.69-1.82-1.95.43.93-.59,1.55.82,2.51-1,.26-.87,1.33-1.67,1.78,1.25.3,1.98.48,2.73-.78.14.13,1.1.72,1.34.85.43.23.86.43,1.31.6-.05.09-.13.17-.22.19-.33-.1.36.24.7.38,1.7.72,3.54,1.08,5.35,1.34.07.06-.45,1.65-.61,1.8-.03,0-.03.02-.05.03-.04,0-.08,0-.12.03-.03-.02-.04-.03-.04-.07,0-.08.49-1.31.51-1.54-2.92-.38-5.69-1.36-8.03-3.17-.19,0-.97,1.68-3.39.3,1.03-.2.92-1.19,1.68-1.82-.89-.7-.25-1.83-.63-2.9,1.02.5,1.96.54,2.42,1.71.61-.19,1.33-.19,1.8-.6.04.65.06,1.02-.45,1.46,1.98.34,4.2-.57,5.7-1.87,1.8-1.57,1.72-3,3.39-4.45,2.13-1.86,5.83-2.19,8.03-.27,1.17,1.02,1.9,2.79,1.38,4.3.62,1.34-1.1,2.22-1.98,2.96-2.12,1.79-3.83,3.41-6.58,4.29-.37.55-1.45,1.4-2.05,1.58-.2.06-.48.02-.45.11Z"/>
            <path class="cls-13" d="M130.1,136.62c-1.66,1.56-4.04,3.43-6.24,4.04-.19.12-.78,1.47-3.43,1.97-.06.01-.1.04-.16.03-.03-.06.04-.04.03-.11.02,0,.03-.02.05-.03.11-.03.13-.06.19-.08,2.6-.91,3.24-1.48,4.14-4.21h.04c0,.1-.16.73-.07.74,1.65-.92,2.99-2.27,4.68-3.11-.06.31.27,0,.44.03-1.76.81-3.45,2.45-5.08,3.51,2.16-.82,3.31-2.2,5.08-3.37-.02.11-.03.17.04.27l.33-.22v.05c-1.17.71-2.19,1.63-3.31,2.43-.66.47-1.36.87-2.01,1.35l.04.04c2.37-.92,3.88-2.52,5.78-4.1.05-.01.11-.08.14-.04-.03.05.02.15,0,.19-.02.04-.47.42-.68.61Z"/>
            <path class="cls-12" d="M113.25,136.1c-.18,0-.74.1-.82.29-.15.34.29.41-.03.9,0,.08.08.06.08.07-.75,1.25-1.48,1.08-2.73.78.8-.44.67-1.52,1.67-1.78-1.41-.97-.38-1.59-.82-2.51,1.06.26,1.97.69,1.82,1.95.39-.84,1.03-.57,1.83-.82.09.07-.15.58-.26.7-.2.21-.51.26-.74.42Z"/>
            <path class="cls-13" d="M119.66,139.71c2.04.25,1.54.11-.18-.25-.3-.37,1.28-.05,1.9-.14.01.01.05-.04.05.07,0,.07-.36,1.18-.42,1.32-.46-.15-.96-.19-1.45-.25-.19-.13.15-.12-.18-.25.49.06.99.11,1.47.12-1.91-.52-3.88-.83-5.74-1.54-.45-.17-.88-.37-1.31-.6v-.05c1.76.95,3.74,1.36,5.67,1.8l.18-.25Z"/>
            <path class="cls-8" d="M113.25,136.1c.15,0,.29.04.44.05-.17.06-1.08.27-1.12.42-.06.19.13.26.14.27,0,.03-.11.28-.11.3.01.06.88.6,1,.67,1.59.92,4.26,1.67,6.08,1.88l-.18.25c-1.93-.44-3.91-.85-5.65-1.8v.05c-.25-.13-1.22-.71-1.35-.85,0,0-.08.01-.08-.07.32-.49-.13-.56.03-.9.08-.19.64-.29.82-.29Z"/>
            <path class="cls-13" d="M130.1,136.62c.21-.2.66-.57.68-.61.02-.04-.03-.14,0-.19-.03-.04-.09.03-.14.04-.13.03-.34.18-.49.27v-.05q-.18.11-.34.22c-.07-.1-.06-.16-.04-.27.53-.35.85-.53,0-.14-.17-.03-.5.29-.44-.03,1.05-.52,2.22-.89,3.09-1.72.07,1.05-1.66,1.8-2.32,2.49Z"/>
            <path class="cls-17" d="M119.39,140.23c-1.16-.15-2.56-.52-3.67-.9-.24-.08-.63-.27-.81-.33.09-.02.17-.1.22-.19,1.86.72,3.83,1.03,5.74,1.54-.49-.02-.99-.06-1.47-.12Z"/>
            <path class="cls-13" d="M132.26,133.67v.05c-.5.33-.98.71-1.52.98-.23.11-1.96.79-2.1.82-.17.03-.16-.13-.05-.22.1-.08,1.82-.66,2.38-.98.55-.32,1.2-1.05,1.3-.66Z"/>
            <path class="cls-18" d="M130.65,135.86c-1.9,1.58-3.41,3.18-5.78,4.1l-.04-.04c.64-.48,1.35-.88,2.01-1.35,1.12-.8,2.14-1.72,3.32-2.43.15-.09.36-.24.49-.27Z"/>
            <path class="cls-17" d="M129.77,136.02c-1.77,1.17-2.92,2.55-5.08,3.37,1.63-1.06,3.32-2.7,5.08-3.51.85-.39.53-.22,0,.14Z"/>
            <g>
              <path class="cls-8" d="M120.54,142.44c-.06.02-.08.05-.19.08.17-.15.69-1.74.61-1.8-1.82-.26-3.66-.62-5.35-1.34-.34-.14-1.02-.48-.7-.38.18.06.57.25.81.33,1.11.38,2.51.75,3.67.9.33.13-.01.12.18.25.48.05.99.1,1.45.25.06-.15.43-1.25.42-1.32,0-.11-.04-.06-.05-.07-.14-.13-.69-.1-.93-.18,1.61-.52,1.35-.98.93.49-.27.94-.43,1.91-.85,2.8Z"/>
              <path class="cls-13" d="M121.62,138.75l-.16.52-.72-.12c.28-.19.73-.05.89-.4Z"/>
            </g>
            <g>
              <path class="cls-12" d="M132.26,133.67c-.1-.39-.75.34-1.3.66-.56.32-2.28.9-2.38.98-.11.09-.11.25.05.22.14-.03,1.88-.71,2.1-.82.54-.27,1.02-.65,1.52-.98.08.11.15.28.16.41-.87.84-2.03,1.2-3.09,1.72-1.7.84-3.03,2.2-4.68,3.11-.09-.01.06-.64.07-.72h-.04c-.9,2.71-1.53,3.28-4.14,4.19.42-.89.58-1.86.85-2.8.42-1.48.68-1.01-.93-.49.24.07.78.05.93.18-.62.08-2.2-.23-1.9.14,1.72.35,2.21.49.18.25-1.82-.22-4.49-.97-6.08-1.88-.12-.07-.99-.61-1-.67,0-.02.12-.27.11-.3,0-.02-.19-.08-.14-.27.04-.15.95-.37,1.12-.42.25.02.51.07.75.08,1.96.08,3.9-.67,5.38-1.94,1.63-1.4,1.72-2.37,2.47-3.43,2.28-3.21,7.41-3.46,9.45-.49.62.9.96,2.27.52,3.29Z"/>
              <g>
                <path class="cls-18" d="M125.36,134.33c1.39-.14,1.5,1.81.25,1.91-1.27.1-1.5-1.79-.25-1.91Z"/>
                <g>
                  <path class="cls-13" d="M125.41,134.68c.89-.07.93,1.07.27,1.2-.94.19-1.15-1.14-.27-1.2Z"/>
                  <path class="cls-18" d="M125.41,134.77c.42-.1.27.58-.05.41-.15-.08-.11-.37.05-.41Z"/>
                </g>
              </g>
            </g>
          </g>
        </g>
        <g>
          <path class="cls-4" d="M127.85,163.01c-1.32.05-2.58-.36-3.57-1.24l-.98.15c.24.26.73.65.72,1.03,0,.2-.2.43-.39.5-.9.32-2.89-.34-3.51-1.16-1.31.23-3.73.35-4.95-.06-.13-.04-.27-.14-.4-.19.08,1.05-1.26.73-1.01-.04.11-.33.34-.26.58-.15.02.01.08.11.14.07.01-.05-.1-.05-.14-.07-.77-.54-1.29-1.34-1.65-2.19-.65-.48-2.28-1.72-1.63-2.65.12-.16.47-.35.65-.45.49-.28,3.6-1.75,4.3-2.07,1.38-.61,2.78-1.19,4.24-1.57.63-.98,1.56-2.84,2.56-3.42.94-.54,2.11-.42,2,.45-.01.1-.6,1.37-.72,1.82-.13.49-.17.99-.25,1.49,2.06.8,3.72,2.3,5.39,3.71l.7-.21c-.24-.4-1.64-1.7-1.68-1.82-.42-1.12,2.53-.72,3.24-.26.38-.57.82-1.13,1.01-1.81-.56-.51.45-1.2.94-.41.56.91.03,3.41-.5,4.35.59,1.22,1.78,4.24-.87,2.66l-2.07.03c-.41.32-.84.64-1.32.85-.03.06.54.61-.57.92,1.67.65,1.67,1.65-.28,1.72Z"/>
          <g>
            <g>
              <path class="cls-10" d="M122.35,161.61c.06,0,.13-.02.18.04.16.64.88,1.08.88,1.16,0,.19-1.24,0-1.7-.18-.4-.16-.81-.49-1.12-.79.4-.01,1.6-.24,1.75-.23Z"/>
              <path class="cls-10" d="M127.76,159.95c.19.73.74.77.15.88-.55.11-.75-.26-.95-.72.12-.02.71-.14.8-.17Z"/>
              <g>
                <path class="cls-20" d="M123.46,159.73c.26.36.48.77.77,1.1-2.05.46-9.01,1.97-10.09-.03.69.54,3.16.37,4.04.25.9-.13,2.33-.52,3.11-.96.28-.16,1-.74.28-.08-.47.42-1.06.79-1.65,1.02,1.19-.3,2.45-.66,3.54-1.3Z"/>
                <path class="cls-10" d="M125.78,159.49c.11.26.23.5.39.74.96,1.52,2.61,1.83,2.59,2-1.57.48-3.44-.16-4.52-1.39-.29-.34-.51-.74-.77-1.1.66-.36,1.42-.46,2.14-.66h.07c.03.14.06.29.11.41Z"/>
                <path class="cls-20" d="M130.66,158.08c-.82.89-1.71,1.56-2.89,1.87-.09.02-.68.14-.8.17-.19.03-.57.02-.8.11-.15-.24-.28-.48-.39-.74,2.01,0,3.18-.4,4.88-1.41Z"/>
                <g>
                  <path class="cls-10" d="M131.04,157.61c-.61.4-1.11.74-1.83.96-.08-.03,0-.53-.07-.83-.02-.09,0-.18-.06-.03-.17.42-.24.96-.68,1.21-.08-.02-.11-.97-.15-1.12h-.06c-.1.44-.25.86-.45,1.25l-.41-2.2c-.09.32-.37,2.36-.88,2.12-.1-.05-.26-1.98-.39-2.23-.05.28-.05.57-.1.84-.03.17-.31,1.42-.48,1.34-.06-.03-.14-.9-.23-1.34-.1-.45-.24-.89-.34-1.34.01.9-.22,1.76-.48,2.6h-.06c-.07-.7-.22-1.38-.43-2.05.03.61-.12,2.4-.7,2.11-.13-.95-.42-1.88-.76-2.77.2,1.11.1,2.33-.5,3.31.38-1.47-1.1-2.42-2.4-2.26.03-.89-1.05-1.68-1.85-1.13-.37.26-.73,1.16-.34,1.24.1.02.34-.02.48,0,.28-.83.92-.51,1.31.06-.72.23-1.18-.06-1.89,0-.27.02-1.38.31-1.96.39-1.09.15-2.74.31-3.76-.14,0,0,0-.04-.06-.03,0-.02-.08-.12-.11-.21,3-1.59,6.07-3.11,9.33-4.09.76-1.3,1.73-3.66,3.5-3.56-.52,1.24-.97,2.53-.87,3.9.42.21.87.37,1.28.59,1.85.99,2.82,2.06,4.44,3.22.28-.02,1.53-.2,1.5-.54-.03-.42-1.27-1.79-1.68-2.09.92-.14,1.85.11,2.69.48.5-.52.98-1.1,1.25-1.78.1-.26.22-1.13.3-.3.11,1.1-.32,2.6-.77,3.61.4.8.72,1.64.83,2.54-.94-.27-1.64-.99-2.01-1.87-.03-.02-.1.08-.17.12Z"/>
                  <path class="cls-9" d="M120.67,153.73c.72-.07,1.24.31,1.83.65.73,1.4.09-.28-1.23-.23-.1-.24-.38-.3-.61-.36v-.06Z"/>
                  <path class="cls-7" d="M116.15,157.17c.21-.05.26.29.03.25-.14-.03-.14-.22-.03-.25Z"/>
                  <path class="cls-9" d="M119.95,154.39c.22.22.41.45.52.74-.04.06-.21-.31-.23-.34-.18-.24-.39-.36-.29-.4Z"/>
                  <path class="cls-5" d="M129.14,157.75l-.06-.03c.06-.15.04-.06.06.03Z"/>
                </g>
                <g>
                  <path class="cls-15" d="M118.81,158.11c-.07.11.06,0,.26.03.07,0,.19.06.26.08.03.04.03.08.03.08-.22.06-.29.16-.3.17-.08.05-.05.05-.06.06-.02.01-.44.13-.47.28-.1-.02-.08.02-.11.03-.17.06-.53.26-.83.36-.03,0-.06.02-.08.03-.29.09-.61.11-.88.22-.02,0-.07-.07-.08,0l-.03.03c-.07-.06-.08,0-.11,0-.31.02-.61.04-.92.06-.02,0-.06.05-.07.06-.06,0-.1,0-.17,0-.17,0-.76-.09-.88,0,0,0,0,.03-.03.03.06-.09-.46-.11-.55-.11-.03,0-.06,0-.06.03-.04-.05-.15-.09-.19-.03-.72-.3-.96-.42-1.46-1.02,1.31.66,3.27.69,4.67.36.7-.17,1.35-.57,2.05-.72Z"/>
                  <path class="cls-4" d="M119.19,157.36c-.39-.56-1.03-.89-1.31-.06-.14-.02-.38.02-.48,0,.12-1.25,1.65-1.06,1.96.01-.01.02-.14.03-.17.04Z"/>
                  <g>
                    <path class="cls-6" d="M129.09,157.72l.06.03c.06.29-.02.8.07.83.73-.23,1.22-.57,1.83-.96-.11.17-.25.32-.39.47-1.7,1-2.86,1.41-4.88,1.41-.05-.12-.08-.27-.11-.4h-.07c-.72.18-1.47.29-2.14.65-1.1.64-2.35,1-3.54,1.3.59-.23,1.18-.6,1.65-1.02.72-.66,0-.08-.28.08-.78.45-2.22.84-3.11.96-.88.13-3.35.29-4.04-.25-.11-.08-.21-.22-.28-.33.1-.05.37.14.54.19.55.17,1.71.15,2.23-.03.03,0,.14-.06.12-.11.08,0,.09,0,.17,0,.73-.02.79-.17,1.1-.3.04-.02.07-.04.11-.06.46-.22.94-.43,1.19-.91.02-.04.03,0,.06-.08.11-.28.14-.61-.03-.88,0,0,0-.04-.03-.08.41.13.74.43.98.77-.38-.8-.61-1.07-1.5-.88-.7.15-1.35.55-2.05.72-1.4.33-3.36.3-4.67-.36-.09-.11-.1-.12-.19-.25.68.65.67-.42.01-.14l-.32-.47c1.02.45,2.67.29,3.76.14.58-.08,1.69-.36,1.96-.39.71-.06,1.17.23,1.89,0,.03,0,.15-.02.17-.04-.31-1.08-1.83-1.26-1.96-.01-.38-.08-.03-.99.34-1.24.79-.55,1.88.24,1.85,1.13,1.3-.16,2.78.79,2.4,2.26.59-.98.7-2.2.5-3.31.34.89.62,1.82.76,2.77.58.29.73-1.5.7-2.11.2.67.36,1.36.43,2.05h.06c.27-.85.49-1.71.48-2.6.11.45.25.89.34,1.34.09.43.17,1.31.23,1.34.17.08.45-1.17.48-1.34.05-.27.05-.57.1-.84.13.25.28,2.18.39,2.23.52.24.79-1.8.88-2.12l.41,2.2c.2-.4.36-.82.45-1.25h.06c.04.15.07,1.1.15,1.12.44-.25.51-.79.68-1.21Z"/>
                    <path class="cls-16" d="M111.58,157.61l.32.47c.65-.29.67.79-.01.14-.14-.21-.26-.4-.36-.63.06-.01.05.03.06.03Z"/>
                    <path class="cls-15" d="M112.87,158.14c.41-.09.72.3.28.39-.9.17-.53-.33-.28-.39Z"/>
                    <path class="cls-19" d="M119.33,158.22c-.07-.02-.19-.07-.26-.08-.2-.02-.33.09-.26-.03.89-.19,1.12.08,1.5.88-.24-.35-.57-.64-.98-.77Z"/>
                  </g>
                </g>
                <g>
                  <path class="cls-10" d="M118.03,160.23c-.31.14-.37.28-1.1.3l.34-.44c.49.18.86-.07.76.14Z"/>
                  <path class="cls-10" d="M119.38,159.18c-.5-.15-.09-.28-.33-.72.02,0,.09-.1.3-.17.17.27.14.6.03.88Z"/>
                  <path class="cls-10" d="M119.33,159.27c-.25.48-.72.69-1.19.91l.26-.5c.63.37.59-.45.69-.5.01,0,.19.07.23.08Z"/>
                  <path class="cls-10" d="M116.52,159.46l.03-.03c.53.74.94.37.29,1.07-.96-.36-.51-.25-.32-1.05Z"/>
                  <path class="cls-10" d="M116.41,159.46l-.34.58-.65-.47s.05-.05.07-.06c.31-.02.61-.04.92-.06Z"/>
                  <path class="cls-10" d="M115.25,159.57c-.18.88-.46.36-.88,0,.12-.09.72,0,.88,0Z"/>
                  <path class="cls-10" d="M118.42,158.82c.15.09.02.07,0,.15-.02.08-.06.46-.12.48l-.7-.28c.29-.09.65-.3.83-.36Z"/>
                  <path class="cls-10" d="M117.51,159.21l-.29.61-.59-.39c.27-.11.59-.13.88-.22Z"/>
                  <path class="cls-10" d="M119,158.52c.22.82-.27.31-.47.28.03-.15.44-.26.47-.28Z"/>
                  <g>
                    <path class="cls-10" d="M113.73,159.51s.13.31.18.3c.12-.01-.11-.27-.12-.33.09,0,.61.02.55.11.02.34-.38,0-.41.4-.04.43.42.38.47.08.02-.13-.18-.68.44.11-.12.59.22.77.15.15.46.51.57.44.12-.1-.01-.09.2-.16.23-.62l.62.59c-.13.27-.46.45-.26.51.15.04.2-.27.33-.41.33.23.38.2.73.22.02.05-.1.1-.12.11-.52.18-1.68.19-2.23.03-.17-.05-.44-.24-.54-.19-.06-.11.09,0,.03-.12-.06-.11-.39-.17-.36-.87.04-.07.15-.02.19.03Z"/>
                    <path class="cls-4" d="M113.79,159.49c.01.06.25.32.12.33-.05,0-.17-.29-.18-.3,0-.04.02-.03.06-.03Z"/>
                    <path class="cls-4" d="M114.44,160.28c.21-.06.21.36-.03.28-.1-.03-.06-.25.03-.28Z"/>
                  </g>
                  <g>
                    <path class="cls-4" d="M119.05,158.47c.24.43-.17.57.33.72-.03.07-.04.05-.06.08-.04-.02-.22-.09-.23-.08-.1.05-.06.87-.69.5l-.26.5s-.07.04-.11.06c.1-.21-.27.04-.76-.14l-.34.44c-.07,0-.08,0-.17,0-.35-.02-.4,0-.73-.22-.13.14-.18.46-.33.41-.2-.06.13-.24.26-.51l-.62-.59c-.04.47-.25.53-.23.62.44.54.34.6-.12.1.06.62-.27.44-.15-.15-.62-.79-.42-.24-.44-.11-.04.29-.51.35-.47-.08.04-.4.43-.06.41-.4.03,0,.03-.03.03-.03.43.36.7.88.88,0,.06,0,.11,0,.17,0l.65.47.34-.58s.04-.06.11,0c-.19.8-.65.69.32,1.05.65-.7.24-.33-.29-1.07.02-.07.07,0,.08,0l.59.39.29-.61s.05-.02.08-.03l.7.28c.06-.02.1-.41.12-.48.02-.09.15-.06,0-.15.03,0,0-.05.11-.03.2.04.68.54.47-.28,0,0-.03,0,.06-.06Z"/>
                    <path class="cls-10" d="M117.63,159.32s.64.28.65.32c-.14.36-.13.53-.59.45-.56-.09-.15-.75-.06-.77Z"/>
                    <path class="cls-10" d="M118.54,158.91c.27.19.64.21.34.62-.17.24-.61.23-.34-.62Z"/>
                  </g>
                </g>
              </g>
            </g>
            <path class="cls-14" d="M114.34,161.86s.15.01.14.07c-.06.04-.12-.06-.14-.07Z"/>
          </g>
        </g>
        <text class="cls-1" transform="translate(136.61 161.16)"><tspan x="0" y="0">: 0</tspan></text>
      </g>
    </g>
    <g>
      <ellipse class="cls-2" cx="286.56" cy="31.43" rx="32.15" ry="30.93"/>
      <rect class="cls-2" x="199.74" y="111.59" width="60.08" height="66.63" rx="10.02" ry="10.02"/>
      <line class="cls-3" x1="283.85" y1="62.23" x2="229.03" y2="111.74"/>
      <line class="cls-3" x1="286.86" y1="62.28" x2="334.37" y2="111.49"/>
      <g>
        <text class="cls-1" transform="translate(287.24 23.6)"><tspan x="0" y="0">: 50</tspan></text>
        <g>
          <g>
            <g>
              <path class="cls-11" d="M272.81,13.93c1.42-.22,1.48,2.05,0,1.86-1.02-.13-.92-1.71,0-1.86Z"/>
              <path class="cls-11" d="M270.98,12.78c1.1-.12,1.21,1.52.3,1.67-1.25.2-1.31-1.55-.3-1.67Z"/>
              <path class="cls-11" d="M273.09,12.05c1.12-.19,1.1,1.59-.05,1.39-.71-.12-.64-1.28.05-1.39Z"/>
              <path class="cls-11" d="M271.67,11.5c.77-.07.83,1.06.16,1.15-.84.11-.87-1.08-.16-1.15Z"/>
            </g>
            <g>
              <path class="cls-18" d="M272.8,27.97c-.35,0-.69.04-1.04.03,2.64-.5,3.24-1.85,3.43-1.97,2.21-.61,4.58-2.48,6.24-4.04.66-.68,2.39-1.44,2.32-2.49,0-.13-.09-.3-.16-.41v-.05c.45-1.03.1-2.39-.52-3.29-2.04-2.97-7.17-2.72-9.45.49-.75,1.06-.84,2.03-2.47,3.43-1.48,1.26-3.42,2.02-5.38,1.94-.25-.01-.5-.06-.75-.08-.15-.01-.28-.05-.44-.05.23-.16.54-.21.74-.42.11-.12.34-.63.26-.7-.8.25-1.44-.03-1.83.82.16-1.26-.75-1.69-1.82-1.95.43.93-.59,1.55.82,2.51-1,.26-.87,1.33-1.67,1.78,1.25.3,1.98.48,2.73-.78.14.13,1.1.72,1.34.85.43.23.86.43,1.31.6-.05.09-.13.17-.22.19-.33-.1.36.24.7.38,1.7.72,3.54,1.08,5.35,1.34.07.06-.45,1.65-.61,1.8-.03,0-.03.02-.05.03-.04,0-.08,0-.12.03-.03-.02-.04-.03-.04-.07,0-.08.49-1.31.51-1.54-2.92-.38-5.69-1.36-8.03-3.17-.19,0-.97,1.68-3.39.3,1.03-.2.92-1.19,1.68-1.82-.89-.7-.25-1.83-.63-2.9,1.02.5,1.96.54,2.42,1.71.61-.19,1.33-.19,1.8-.6.04.65.06,1.02-.45,1.46,1.98.34,4.2-.57,5.7-1.87,1.8-1.57,1.72-3,3.39-4.45,2.13-1.86,5.83-2.19,8.03-.27,1.17,1.02,1.9,2.79,1.38,4.3.62,1.34-1.1,2.22-1.98,2.96-2.12,1.79-3.83,3.41-6.58,4.29-.37.55-1.45,1.4-2.05,1.58-.2.06-.48.02-.45.11Z"/>
              <path class="cls-13" d="M281.43,21.99c-1.66,1.56-4.04,3.43-6.24,4.04-.19.12-.78,1.47-3.43,1.97-.06.01-.1.04-.16.03-.03-.06.04-.04.03-.11.02,0,.03-.02.05-.03.11-.03.13-.06.19-.08,2.6-.91,3.24-1.48,4.14-4.21h.04c0,.1-.16.73-.07.74,1.65-.92,2.99-2.27,4.68-3.11-.06.31.27,0,.44.03-1.76.81-3.45,2.45-5.08,3.51,2.16-.82,3.31-2.2,5.08-3.37-.02.11-.03.17.04.27l.33-.22v.05c-1.17.71-2.19,1.63-3.31,2.43-.66.47-1.36.87-2.01,1.35l.04.04c2.37-.92,3.88-2.52,5.78-4.1.05-.01.11-.08.14-.04-.03.05.02.15,0,.19-.02.04-.47.42-.68.61Z"/>
              <path class="cls-12" d="M264.58,21.47c-.18,0-.74.1-.82.29-.15.34.29.41-.03.9,0,.08.08.06.08.07-.75,1.25-1.48,1.08-2.73.78.8-.44.67-1.52,1.67-1.78-1.41-.97-.38-1.59-.82-2.51,1.06.26,1.97.69,1.82,1.95.39-.84,1.03-.57,1.83-.82.09.07-.15.58-.26.7-.2.21-.51.26-.74.42Z"/>
              <path class="cls-13" d="M271,25.07c2.04.25,1.54.11-.18-.25-.3-.37,1.28-.05,1.9-.14.01.01.05-.04.05.07,0,.07-.36,1.18-.42,1.32-.46-.15-.96-.19-1.45-.25-.19-.13.15-.12-.18-.25.49.06.99.11,1.47.12-1.91-.52-3.88-.83-5.74-1.54-.45-.17-.88-.37-1.31-.6v-.05c1.76.95,3.74,1.36,5.67,1.8l.18-.25Z"/>
              <path class="cls-8" d="M264.58,21.47c.15,0,.29.04.44.05-.17.06-1.08.27-1.12.42-.06.19.13.26.14.27,0,.03-.11.28-.11.3.01.06.88.6,1,.67,1.59.92,4.26,1.67,6.08,1.88l-.18.25c-1.93-.44-3.91-.85-5.65-1.8v.05c-.25-.13-1.22-.71-1.35-.85,0,0-.08.01-.08-.07.32-.49-.13-.56.03-.9.08-.19.64-.29.82-.29Z"/>
              <path class="cls-13" d="M281.43,21.99c.21-.2.66-.57.68-.61.02-.04-.03-.14,0-.19-.03-.04-.09.03-.14.04-.13.03-.34.18-.49.27v-.05q-.18.11-.34.22c-.07-.1-.06-.16-.04-.27.53-.35.85-.53,0-.14-.17-.03-.5.29-.44-.03,1.05-.52,2.22-.89,3.09-1.72.07,1.05-1.66,1.8-2.32,2.49Z"/>
              <path class="cls-17" d="M270.72,25.59c-1.16-.15-2.56-.52-3.67-.9-.24-.08-.63-.27-.81-.33.09-.02.17-.1.22-.19,1.86.72,3.83,1.03,5.74,1.54-.49-.02-.99-.06-1.47-.12Z"/>
              <path class="cls-13" d="M283.59,19.04v.05c-.5.33-.98.71-1.52.98-.23.11-1.96.79-2.1.82-.17.03-.16-.13-.05-.22.1-.08,1.82-.66,2.38-.98.55-.32,1.2-1.05,1.3-.66Z"/>
              <path class="cls-18" d="M281.98,21.22c-1.9,1.58-3.41,3.18-5.78,4.1l-.04-.04c.64-.48,1.35-.88,2.01-1.35,1.12-.8,2.14-1.72,3.32-2.43.15-.09.36-.24.49-.27Z"/>
              <path class="cls-17" d="M281.1,21.39c-1.77,1.17-2.92,2.55-5.08,3.37,1.63-1.06,3.32-2.7,5.08-3.51.85-.39.53-.22,0,.14Z"/>
              <g>
                <path class="cls-8" d="M271.87,27.81c-.06.02-.08.05-.19.08.17-.15.69-1.74.61-1.8-1.82-.26-3.66-.62-5.35-1.34-.34-.14-1.02-.48-.7-.38.18.06.57.25.81.33,1.11.38,2.51.75,3.67.9.33.13-.01.12.18.25.48.05.99.1,1.45.25.06-.15.43-1.25.42-1.32,0-.11-.04-.06-.05-.07-.14-.13-.69-.1-.93-.18,1.61-.52,1.35-.98.93.49-.27.94-.43,1.91-.85,2.8Z"/>
                <path class="cls-13" d="M272.95,24.12l-.16.52-.72-.12c.28-.19.73-.05.89-.4Z"/>
              </g>
              <g>
                <path class="cls-12" d="M283.59,19.04c-.1-.39-.75.34-1.3.66-.56.32-2.28.9-2.38.98-.11.09-.11.25.05.22.14-.03,1.88-.71,2.1-.82.54-.27,1.02-.65,1.52-.98.08.11.15.28.16.41-.87.84-2.03,1.2-3.09,1.72-1.7.84-3.03,2.2-4.68,3.11-.09-.01.06-.64.07-.72h-.04c-.9,2.71-1.53,3.28-4.14,4.19.42-.89.58-1.86.85-2.8.42-1.48.68-1.01-.93-.49.24.07.78.05.93.18-.62.08-2.2-.23-1.9.14,1.72.35,2.21.49.18.25-1.82-.22-4.49-.97-6.08-1.88-.12-.07-.99-.61-1-.67,0-.02.12-.27.11-.3,0-.02-.19-.08-.14-.27.04-.15.95-.37,1.12-.42.25.02.51.07.75.08,1.96.08,3.9-.67,5.38-1.94,1.63-1.4,1.72-2.37,2.47-3.43,2.28-3.21,7.41-3.46,9.45-.49.62.9.96,2.27.52,3.29Z"/>
                <g>
                  <path class="cls-18" d="M276.69,19.69c1.39-.14,1.5,1.81.25,1.91-1.27.1-1.5-1.79-.25-1.91Z"/>
                  <g>
                    <path class="cls-13" d="M276.75,20.05c.89-.07.93,1.07.27,1.2-.94.19-1.15-1.14-.27-1.2Z"/>
                    <path class="cls-18" d="M276.75,20.13c.42-.1.27.58-.05.41-.15-.08-.11-.37.05-.41Z"/>
                  </g>
                </g>
              </g>
            </g>
          </g>
          <g>
            <path class="cls-4" d="M279.18,48.38c-1.32.05-2.58-.36-3.57-1.24l-.98.15c.24.26.73.65.72,1.03,0,.2-.2.43-.39.5-.9.32-2.89-.34-3.51-1.16-1.31.23-3.73.35-4.95-.06-.13-.04-.27-.14-.4-.19.08,1.05-1.26.73-1.01-.04.11-.33.34-.26.58-.15.02.01.08.11.14.07.01-.05-.1-.05-.14-.07-.77-.54-1.29-1.34-1.65-2.19-.65-.48-2.28-1.72-1.63-2.65.12-.16.47-.35.65-.45.49-.28,3.6-1.75,4.3-2.07,1.38-.61,2.78-1.19,4.24-1.57.63-.98,1.56-2.84,2.56-3.42.94-.54,2.11-.42,2,.45-.01.1-.6,1.37-.72,1.82-.13.49-.17.99-.25,1.49,2.06.8,3.72,2.3,5.39,3.71l.7-.21c-.24-.4-1.64-1.7-1.68-1.82-.42-1.12,2.53-.72,3.24-.26.38-.57.82-1.13,1.01-1.81-.56-.51.45-1.2.94-.41.56.91.03,3.41-.5,4.35.59,1.22,1.78,4.24-.87,2.66l-2.07.03c-.41.32-.84.64-1.32.85-.03.06.54.61-.57.92,1.67.65,1.67,1.65-.28,1.72Z"/>
            <g>
              <g>
                <path class="cls-10" d="M273.68,46.97c.06,0,.13-.02.18.04.16.64.88,1.08.88,1.16,0,.19-1.24,0-1.7-.18-.4-.16-.81-.49-1.12-.79.4-.01,1.6-.24,1.75-.23Z"/>
                <path class="cls-10" d="M279.1,45.32c.19.73.74.77.15.88-.55.11-.75-.26-.95-.72.12-.02.71-.14.8-.17Z"/>
                <g>
                  <path class="cls-20" d="M274.8,45.1c.26.36.48.77.77,1.1-2.05.46-9.01,1.97-10.09-.03.69.54,3.16.37,4.04.25.9-.13,2.33-.52,3.11-.96.28-.16,1-.74.28-.08-.47.42-1.06.79-1.65,1.02,1.19-.3,2.45-.66,3.54-1.3Z"/>
                  <path class="cls-10" d="M277.11,44.85c.11.26.23.5.39.74.96,1.52,2.61,1.83,2.59,2-1.57.48-3.44-.16-4.52-1.39-.29-.34-.51-.74-.77-1.1.66-.36,1.42-.46,2.14-.66h.07c.03.14.06.29.11.41Z"/>
                  <path class="cls-20" d="M281.99,43.45c-.82.89-1.71,1.56-2.89,1.87-.09.02-.68.14-.8.17-.19.03-.57.02-.8.11-.15-.24-.28-.48-.39-.74,2.01,0,3.18-.4,4.88-1.41Z"/>
                  <g>
                    <path class="cls-10" d="M282.38,42.98c-.61.4-1.11.74-1.83.96-.08-.03,0-.53-.07-.83-.02-.09,0-.18-.06-.03-.17.42-.24.96-.68,1.21-.08-.02-.11-.97-.15-1.12h-.06c-.1.44-.25.86-.45,1.25l-.41-2.2c-.09.32-.37,2.36-.88,2.12-.1-.05-.26-1.98-.39-2.23-.05.28-.05.57-.1.84-.03.17-.31,1.42-.48,1.34-.06-.03-.14-.9-.23-1.34-.1-.45-.24-.89-.34-1.34.01.9-.22,1.76-.48,2.6h-.06c-.07-.7-.22-1.38-.43-2.05.03.61-.12,2.4-.7,2.11-.13-.95-.42-1.88-.76-2.77.2,1.11.1,2.33-.5,3.31.38-1.47-1.1-2.42-2.4-2.26.03-.89-1.05-1.68-1.85-1.13-.37.26-.73,1.16-.34,1.24.1.02.34-.02.48,0,.28-.83.92-.51,1.31.06-.72.23-1.18-.06-1.89,0-.27.02-1.38.31-1.96.39-1.09.15-2.74.31-3.76-.14,0,0,0-.04-.06-.03,0-.02-.08-.12-.11-.21,3-1.59,6.07-3.11,9.33-4.09.76-1.3,1.73-3.66,3.5-3.56-.52,1.24-.97,2.53-.87,3.9.42.21.87.37,1.28.59,1.85.99,2.82,2.06,4.44,3.22.28-.02,1.53-.2,1.5-.54-.03-.42-1.27-1.79-1.68-2.09.92-.14,1.85.11,2.69.48.5-.52.98-1.1,1.25-1.78.1-.26.22-1.13.3-.3.11,1.1-.32,2.6-.77,3.61.4.8.72,1.64.83,2.54-.94-.27-1.64-.99-2.01-1.87-.03-.02-.1.08-.17.12Z"/>
                    <path class="cls-9" d="M272,39.09c.72-.07,1.24.31,1.83.65.73,1.4.09-.28-1.23-.23-.1-.24-.38-.3-.61-.36v-.06Z"/>
                    <path class="cls-7" d="M267.48,42.54c.21-.05.26.29.03.25-.14-.03-.14-.22-.03-.25Z"/>
                    <path class="cls-9" d="M271.28,39.75c.22.22.41.45.52.74-.04.06-.21-.31-.23-.34-.18-.24-.39-.36-.29-.4Z"/>
                    <path class="cls-5" d="M280.47,43.11l-.06-.03c.06-.15.04-.06.06.03Z"/>
                  </g>
                  <g>
                    <path class="cls-15" d="M270.14,43.47c-.07.11.06,0,.26.03.07,0,.19.06.26.08.03.04.03.08.03.08-.22.06-.29.16-.3.17-.08.05-.05.05-.06.06-.02.01-.44.13-.47.28-.1-.02-.08.02-.11.03-.17.06-.53.26-.83.36-.03,0-.06.02-.08.03-.29.09-.61.11-.88.22-.02,0-.07-.07-.08,0l-.03.03c-.07-.06-.08,0-.11,0-.31.02-.61.04-.92.06-.02,0-.06.05-.07.06-.06,0-.1,0-.17,0-.17,0-.76-.09-.88,0,0,0,0,.03-.03.03.06-.09-.46-.11-.55-.11-.03,0-.06,0-.06.03-.04-.05-.15-.09-.19-.03-.72-.3-.96-.42-1.46-1.02,1.31.66,3.27.69,4.67.36.7-.17,1.35-.57,2.05-.72Z"/>
                    <path class="cls-4" d="M270.52,42.73c-.39-.56-1.03-.89-1.31-.06-.14-.02-.38.02-.48,0,.12-1.25,1.65-1.06,1.96.01-.01.02-.14.03-.17.04Z"/>
                    <g>
                      <path class="cls-6" d="M280.42,43.09l.06.03c.06.29-.02.8.07.83.73-.23,1.22-.57,1.83-.96-.11.17-.25.32-.39.47-1.7,1-2.86,1.41-4.88,1.41-.05-.12-.08-.27-.11-.4h-.07c-.72.18-1.47.29-2.14.65-1.1.64-2.35,1-3.54,1.3.59-.23,1.18-.6,1.65-1.02.72-.66,0-.08-.28.08-.78.45-2.22.84-3.11.96-.88.13-3.35.29-4.04-.25-.11-.08-.21-.22-.28-.33.1-.05.37.14.54.19.55.17,1.71.15,2.23-.03.03,0,.14-.06.12-.11.08,0,.09,0,.17,0,.73-.02.79-.17,1.1-.3.04-.02.07-.04.11-.06.46-.22.94-.43,1.19-.91.02-.04.03,0,.06-.08.11-.28.14-.61-.03-.88,0,0,0-.04-.03-.08.41.13.74.43.98.77-.38-.8-.61-1.07-1.5-.88-.7.15-1.35.55-2.05.72-1.4.33-3.36.3-4.67-.36-.09-.11-.1-.12-.19-.25.68.65.67-.42.01-.14l-.32-.47c1.02.45,2.67.29,3.76.14.58-.08,1.69-.36,1.96-.39.71-.06,1.17.23,1.89,0,.03,0,.15-.02.17-.04-.31-1.08-1.83-1.26-1.96-.01-.38-.08-.03-.99.34-1.24.79-.55,1.88.24,1.85,1.13,1.3-.16,2.78.79,2.4,2.26.59-.98.7-2.2.5-3.31.34.89.62,1.82.76,2.77.58.29.73-1.5.7-2.11.2.67.36,1.36.43,2.05h.06c.27-.85.49-1.71.48-2.6.11.45.25.89.34,1.34.09.43.17,1.31.23,1.34.17.08.45-1.17.48-1.34.05-.27.05-.57.1-.84.13.25.28,2.18.39,2.23.52.24.79-1.8.88-2.12l.41,2.2c.2-.4.36-.82.45-1.25h.06c.04.15.07,1.1.15,1.12.44-.25.51-.79.68-1.21Z"/>
                      <path class="cls-16" d="M262.92,42.98l.32.47c.65-.29.67.79-.01.14-.14-.21-.26-.4-.36-.63.06-.01.05.03.06.03Z"/>
                      <path class="cls-15" d="M264.2,43.5c.41-.09.72.3.28.39-.9.17-.53-.33-.28-.39Z"/>
                      <path class="cls-19" d="M270.66,43.58c-.07-.02-.19-.07-.26-.08-.2-.02-.33.09-.26-.03.89-.19,1.12.08,1.5.88-.24-.35-.57-.64-.98-.77Z"/>
                    </g>
                  </g>
                  <g>
                    <path class="cls-10" d="M269.37,45.6c-.31.14-.37.28-1.1.3l.34-.44c.49.18.86-.07.76.14Z"/>
                    <path class="cls-10" d="M270.72,44.55c-.5-.15-.09-.28-.33-.72.02,0,.09-.1.3-.17.17.27.14.6.03.88Z"/>
                    <path class="cls-10" d="M270.66,44.63c-.25.48-.72.69-1.19.91l.26-.5c.63.37.59-.45.69-.5.01,0,.19.07.23.08Z"/>
                    <path class="cls-10" d="M267.85,44.82l.03-.03c.53.74.94.37.29,1.07-.96-.36-.51-.25-.32-1.05Z"/>
                    <path class="cls-10" d="M267.74,44.82l-.34.58-.65-.47s.05-.05.07-.06c.31-.02.61-.04.92-.06Z"/>
                    <path class="cls-10" d="M266.58,44.93c-.18.88-.46.36-.88,0,.12-.09.72,0,.88,0Z"/>
                    <path class="cls-10" d="M269.75,44.19c.15.09.02.07,0,.15-.02.08-.06.46-.12.48l-.7-.28c.29-.09.65-.3.83-.36Z"/>
                    <path class="cls-10" d="M268.84,44.58l-.29.61-.59-.39c.27-.11.59-.13.88-.22Z"/>
                    <path class="cls-10" d="M270.33,43.89c.22.82-.27.31-.47.28.03-.15.44-.26.47-.28Z"/>
                    <g>
                      <path class="cls-10" d="M265.07,44.88s.13.31.18.3c.12-.01-.11-.27-.12-.33.09,0,.61.02.55.11.02.34-.38,0-.41.4-.04.43.42.38.47.08.02-.13-.18-.68.44.11-.12.59.22.77.15.15.46.51.57.44.12-.1-.01-.09.2-.16.23-.62l.62.59c-.13.27-.46.45-.26.51.15.04.2-.27.33-.41.33.23.38.2.73.22.02.05-.1.1-.12.11-.52.18-1.68.19-2.23.03-.17-.05-.44-.24-.54-.19-.06-.11.09,0,.03-.12-.06-.11-.39-.17-.36-.87.04-.07.15-.02.19.03Z"/>
                      <path class="cls-4" d="M265.12,44.85c.01.06.25.32.12.33-.05,0-.17-.29-.18-.3,0-.04.02-.03.06-.03Z"/>
                      <path class="cls-4" d="M265.77,45.65c.21-.06.21.36-.03.28-.1-.03-.06-.25.03-.28Z"/>
                    </g>
                    <g>
                      <path class="cls-4" d="M270.39,43.83c.24.43-.17.57.33.72-.03.07-.04.05-.06.08-.04-.02-.22-.09-.23-.08-.1.05-.06.87-.69.5l-.26.5s-.07.04-.11.06c.1-.21-.27.04-.76-.14l-.34.44c-.07,0-.08,0-.17,0-.35-.02-.4,0-.73-.22-.13.14-.18.46-.33.41-.2-.06.13-.24.26-.51l-.62-.59c-.04.47-.25.53-.23.62.44.54.34.6-.12.1.06.62-.27.44-.15-.15-.62-.79-.42-.24-.44-.11-.04.29-.51.35-.47-.08.04-.4.43-.06.41-.4.03,0,.03-.03.03-.03.43.36.7.88.88,0,.06,0,.11,0,.17,0l.65.47.34-.58s.04-.06.11,0c-.19.8-.65.69.32,1.05.65-.7.24-.33-.29-1.07.02-.07.07,0,.08,0l.59.39.29-.61s.05-.02.08-.03l.7.28c.06-.02.1-.41.12-.48.02-.09.15-.06,0-.15.03,0,0-.05.11-.03.2.04.68.54.47-.28,0,0-.03,0,.06-.06Z"/>
                      <path class="cls-10" d="M268.97,44.69s.64.28.65.32c-.14.36-.13.53-.59.45-.56-.09-.15-.75-.06-.77Z"/>
                      <path class="cls-10" d="M269.88,44.27c.27.19.64.21.34.62-.17.24-.61.23-.34-.62Z"/>
                    </g>
                  </g>
                </g>
              </g>
              <path class="cls-14" d="M265.67,47.22s.15.01.14.07c-.06.04-.12-.06-.14-.07Z"/>
            </g>
          </g>
          <text class="cls-1" transform="translate(287.94 46.53)"><tspan x="0" y="0">: 50</tspan></text>
        </g>
      </g>
      <text class="cls-1" transform="translate(231.54 138.13)"><tspan x="0" y="0">: 25</tspan></text>
      <g>
        <g>
          <g>
            <path class="cls-11" d="M217.11,128.45c1.42-.22,1.48,2.05,0,1.86-1.02-.13-.92-1.71,0-1.86Z"/>
            <path class="cls-11" d="M215.28,127.31c1.1-.12,1.21,1.52.3,1.67-1.25.2-1.31-1.55-.3-1.67Z"/>
            <path class="cls-11" d="M217.38,126.57c1.12-.19,1.1,1.59-.05,1.39-.71-.12-.64-1.28.05-1.39Z"/>
            <path class="cls-11" d="M215.96,126.02c.77-.07.83,1.06.16,1.15-.84.11-.87-1.08-.16-1.15Z"/>
          </g>
          <g>
            <path class="cls-18" d="M217.09,142.49c-.35,0-.69.04-1.04.03,2.64-.5,3.24-1.85,3.43-1.97,2.21-.61,4.58-2.48,6.24-4.04.66-.68,2.39-1.44,2.32-2.49,0-.13-.09-.3-.16-.41v-.05c.45-1.03.1-2.39-.52-3.29-2.04-2.97-7.17-2.72-9.45.49-.75,1.06-.84,2.03-2.47,3.43-1.48,1.26-3.42,2.02-5.38,1.94-.25-.01-.5-.06-.75-.08-.15-.01-.28-.05-.44-.05.23-.16.54-.21.74-.42.11-.12.34-.63.26-.7-.8.25-1.44-.03-1.83.82.16-1.26-.75-1.69-1.82-1.95.43.93-.59,1.55.82,2.51-1,.26-.87,1.33-1.67,1.78,1.25.3,1.98.48,2.73-.78.14.13,1.1.72,1.34.85.43.23.86.43,1.31.6-.05.09-.13.17-.22.19-.33-.1.36.24.7.38,1.7.72,3.54,1.08,5.35,1.34.07.06-.45,1.65-.61,1.8-.03,0-.03.02-.05.03-.04,0-.08,0-.12.03-.03-.02-.04-.03-.04-.07,0-.08.49-1.31.51-1.54-2.92-.38-5.69-1.36-8.03-3.17-.19,0-.97,1.68-3.39.3,1.03-.2.92-1.19,1.68-1.82-.89-.7-.25-1.83-.63-2.9,1.02.5,1.96.54,2.42,1.71.61-.19,1.33-.19,1.8-.6.04.65.06,1.02-.45,1.46,1.98.34,4.2-.57,5.7-1.87,1.8-1.57,1.72-3,3.39-4.45,2.13-1.86,5.83-2.19,8.03-.27,1.17,1.02,1.9,2.79,1.38,4.3.62,1.34-1.1,2.22-1.98,2.96-2.12,1.79-3.83,3.41-6.58,4.29-.37.55-1.45,1.4-2.05,1.58-.2.06-.48.02-.45.11Z"/>
            <path class="cls-13" d="M225.72,136.51c-1.66,1.56-4.04,3.43-6.24,4.04-.19.12-.78,1.47-3.43,1.97-.06.01-.1.04-.16.03-.03-.06.04-.04.03-.11.02,0,.03-.02.05-.03.11-.03.13-.06.19-.08,2.6-.91,3.24-1.48,4.14-4.21h.04c0,.1-.16.73-.07.74,1.65-.92,2.99-2.27,4.68-3.11-.06.31.27,0,.44.03-1.76.81-3.45,2.45-5.08,3.51,2.16-.82,3.31-2.2,5.08-3.37-.02.11-.03.17.04.27l.33-.22v.05c-1.17.71-2.19,1.63-3.31,2.43-.66.47-1.36.87-2.01,1.35l.04.04c2.37-.92,3.88-2.52,5.78-4.1.05-.01.11-.08.14-.04-.03.05.02.15,0,.19-.02.04-.47.42-.68.61Z"/>
            <path class="cls-12" d="M208.87,135.99c-.18,0-.74.1-.82.29-.15.34.29.41-.03.9,0,.08.08.06.08.07-.75,1.25-1.48,1.08-2.73.78.8-.44.67-1.52,1.67-1.78-1.41-.97-.38-1.59-.82-2.51,1.06.26,1.97.69,1.82,1.95.39-.84,1.03-.57,1.83-.82.09.07-.15.58-.26.7-.2.21-.51.26-.74.42Z"/>
            <path class="cls-13" d="M215.29,139.6c2.04.25,1.54.11-.18-.25-.3-.37,1.28-.05,1.9-.14.01.01.05-.04.05.07,0,.07-.36,1.18-.42,1.32-.46-.15-.96-.19-1.45-.25-.19-.13.15-.12-.18-.25.49.06.99.11,1.47.12-1.91-.52-3.88-.83-5.74-1.54-.45-.17-.88-.37-1.31-.6v-.05c1.76.95,3.74,1.36,5.67,1.8l.18-.25Z"/>
            <path class="cls-8" d="M208.87,135.99c.15,0,.29.04.44.05-.17.06-1.08.27-1.12.42-.06.19.13.26.14.27,0,.03-.11.28-.11.3.01.06.88.6,1,.67,1.59.92,4.26,1.67,6.08,1.88l-.18.25c-1.93-.44-3.91-.85-5.65-1.8v.05c-.25-.13-1.22-.71-1.35-.85,0,0-.08.01-.08-.07.32-.49-.13-.56.03-.9.08-.19.64-.29.82-.29Z"/>
            <path class="cls-13" d="M225.72,136.51c.21-.2.66-.57.68-.61.02-.04-.03-.14,0-.19-.03-.04-.09.03-.14.04-.13.03-.34.18-.49.27v-.05q-.18.11-.34.22c-.07-.1-.06-.16-.04-.27.53-.35.85-.53,0-.14-.17-.03-.5.29-.44-.03,1.05-.52,2.22-.89,3.09-1.72.07,1.05-1.66,1.8-2.32,2.49Z"/>
            <path class="cls-17" d="M215.02,140.12c-1.16-.15-2.56-.52-3.67-.9-.24-.08-.63-.27-.81-.33.09-.02.17-.1.22-.19,1.86.72,3.83,1.03,5.74,1.54-.49-.02-.99-.06-1.47-.12Z"/>
            <path class="cls-13" d="M227.88,133.56v.05c-.5.33-.98.71-1.52.98-.23.11-1.96.79-2.1.82-.17.03-.16-.13-.05-.22.1-.08,1.82-.66,2.38-.98.55-.32,1.2-1.05,1.3-.66Z"/>
            <path class="cls-18" d="M226.27,135.75c-1.9,1.58-3.41,3.18-5.78,4.1l-.04-.04c.64-.48,1.35-.88,2.01-1.35,1.12-.8,2.14-1.72,3.32-2.43.15-.09.36-.24.49-.27Z"/>
            <path class="cls-17" d="M225.4,135.91c-1.77,1.17-2.92,2.55-5.08,3.37,1.63-1.06,3.32-2.7,5.08-3.51.85-.39.53-.22,0,.14Z"/>
            <g>
              <path class="cls-8" d="M216.16,142.33c-.06.02-.08.05-.19.08.17-.15.69-1.74.61-1.8-1.82-.26-3.66-.62-5.35-1.34-.34-.14-1.02-.48-.7-.38.18.06.57.25.81.33,1.11.38,2.51.75,3.67.9.33.13-.01.12.18.25.48.05.99.1,1.45.25.06-.15.43-1.25.42-1.32,0-.11-.04-.06-.05-.07-.14-.13-.69-.1-.93-.18,1.61-.52,1.35-.98.93.49-.27.94-.43,1.91-.85,2.8Z"/>
              <path class="cls-13" d="M217.24,138.64l-.16.52-.72-.12c.28-.19.73-.05.89-.4Z"/>
            </g>
            <g>
              <path class="cls-12" d="M227.88,133.56c-.1-.39-.75.34-1.3.66-.56.32-2.28.9-2.38.98-.11.09-.11.25.05.22.14-.03,1.88-.71,2.1-.82.54-.27,1.02-.65,1.52-.98.08.11.15.28.16.41-.87.84-2.03,1.2-3.09,1.72-1.7.84-3.03,2.2-4.68,3.11-.09-.01.06-.64.07-.72h-.04c-.9,2.71-1.53,3.28-4.14,4.19.42-.89.58-1.86.85-2.8.42-1.48.68-1.01-.93-.49.24.07.78.05.93.18-.62.08-2.2-.23-1.9.14,1.72.35,2.21.49.18.25-1.82-.22-4.49-.97-6.08-1.88-.12-.07-.99-.61-1-.67,0-.02.12-.27.11-.3,0-.02-.19-.08-.14-.27.04-.15.95-.37,1.12-.42.25.02.51.07.75.08,1.96.08,3.9-.67,5.38-1.94,1.63-1.4,1.72-2.37,2.47-3.43,2.28-3.21,7.41-3.46,9.45-.49.62.9.96,2.27.52,3.29Z"/>
              <g>
                <path class="cls-18" d="M220.99,134.22c1.39-.14,1.5,1.81.25,1.91-1.27.1-1.5-1.79-.25-1.91Z"/>
                <g>
                  <path class="cls-13" d="M221.04,134.57c.89-.07.93,1.07.27,1.2-.94.19-1.15-1.14-.27-1.2Z"/>
                  <path class="cls-18" d="M221.04,134.65c.42-.1.27.58-.05.41-.15-.08-.11-.37.05-.41Z"/>
                </g>
              </g>
            </g>
          </g>
        </g>
        <g>
          <path class="cls-4" d="M223.47,162.9c-1.32.05-2.58-.36-3.57-1.24l-.98.15c.24.26.73.65.72,1.03,0,.2-.2.43-.39.5-.9.32-2.89-.34-3.51-1.16-1.31.23-3.73.35-4.95-.06-.13-.04-.27-.14-.4-.19.08,1.05-1.26.73-1.01-.04.11-.33.34-.26.58-.15.02.01.08.11.14.07.01-.05-.1-.05-.14-.07-.77-.54-1.29-1.34-1.65-2.19-.65-.48-2.28-1.72-1.63-2.65.12-.16.47-.35.65-.45.49-.28,3.6-1.75,4.3-2.07,1.38-.61,2.78-1.19,4.24-1.57.63-.98,1.56-2.84,2.56-3.42.94-.54,2.11-.42,2,.45-.01.1-.6,1.37-.72,1.82-.13.49-.17.99-.25,1.49,2.06.8,3.72,2.3,5.39,3.71l.7-.21c-.24-.4-1.64-1.7-1.68-1.82-.42-1.12,2.53-.72,3.24-.26.38-.57.82-1.13,1.01-1.81-.56-.51.45-1.2.94-.41.56.91.03,3.41-.5,4.35.59,1.22,1.78,4.24-.87,2.66l-2.07.03c-.41.32-.84.64-1.32.85-.03.06.54.61-.57.92,1.67.65,1.67,1.65-.28,1.72Z"/>
          <g>
            <g>
              <path class="cls-10" d="M217.97,161.5c.06,0,.13-.02.18.04.16.64.88,1.08.88,1.16,0,.19-1.24,0-1.7-.18-.4-.16-.81-.49-1.12-.79.4-.01,1.6-.24,1.75-.23Z"/>
              <path class="cls-10" d="M223.39,159.84c.19.73.74.77.15.88-.55.11-.75-.26-.95-.72.12-.02.71-.14.8-.17Z"/>
              <g>
                <path class="cls-20" d="M219.09,159.62c.26.36.48.77.77,1.1-2.05.46-9.01,1.97-10.09-.03.69.54,3.16.37,4.04.25.9-.13,2.33-.52,3.11-.96.28-.16,1-.74.28-.08-.47.42-1.06.79-1.65,1.02,1.19-.3,2.45-.66,3.54-1.3Z"/>
                <path class="cls-10" d="M221.4,159.37c.11.26.23.5.39.74.96,1.52,2.61,1.83,2.59,2-1.57.48-3.44-.16-4.52-1.39-.29-.34-.51-.74-.77-1.1.66-.36,1.42-.46,2.14-.66h.07c.03.14.06.29.11.41Z"/>
                <path class="cls-20" d="M226.28,157.97c-.82.89-1.71,1.56-2.89,1.87-.09.02-.68.14-.8.17-.19.03-.57.02-.8.11-.15-.24-.28-.48-.39-.74,2.01,0,3.18-.4,4.88-1.41Z"/>
                <g>
                  <path class="cls-10" d="M226.67,157.5c-.61.4-1.11.74-1.83.96-.08-.03,0-.53-.07-.83-.02-.09,0-.18-.06-.03-.17.42-.24.96-.68,1.21-.08-.02-.11-.97-.15-1.12h-.06c-.1.44-.25.86-.45,1.25l-.41-2.2c-.09.32-.37,2.36-.88,2.12-.1-.05-.26-1.98-.39-2.23-.05.28-.05.57-.1.84-.03.17-.31,1.42-.48,1.34-.06-.03-.14-.9-.23-1.34-.1-.45-.24-.89-.34-1.34.01.9-.22,1.76-.48,2.6h-.06c-.07-.7-.22-1.38-.43-2.05.03.61-.12,2.4-.7,2.11-.13-.95-.42-1.88-.76-2.77.2,1.11.1,2.33-.5,3.31.38-1.47-1.1-2.42-2.4-2.26.03-.89-1.05-1.68-1.85-1.13-.37.26-.73,1.16-.34,1.24.1.02.34-.02.48,0,.28-.83.92-.51,1.31.06-.72.23-1.18-.06-1.89,0-.27.02-1.38.31-1.96.39-1.09.15-2.74.31-3.76-.14,0,0,0-.04-.06-.03,0-.02-.08-.12-.11-.21,3-1.59,6.07-3.11,9.33-4.09.76-1.3,1.73-3.66,3.5-3.56-.52,1.24-.97,2.53-.87,3.9.42.21.87.37,1.28.59,1.85.99,2.82,2.06,4.44,3.22.28-.02,1.53-.2,1.5-.54-.03-.42-1.27-1.79-1.68-2.09.92-.14,1.85.11,2.69.48.5-.52.98-1.1,1.25-1.78.1-.26.22-1.13.3-.3.11,1.1-.32,2.6-.77,3.61.4.8.72,1.64.83,2.54-.94-.27-1.64-.99-2.01-1.87-.03-.02-.1.08-.17.12Z"/>
                  <path class="cls-9" d="M216.29,153.61c.72-.07,1.24.31,1.83.65.73,1.4.09-.28-1.23-.23-.1-.24-.38-.3-.61-.36v-.06Z"/>
                  <path class="cls-7" d="M211.77,157.06c.21-.05.26.29.03.25-.14-.03-.14-.22-.03-.25Z"/>
                  <path class="cls-9" d="M215.57,154.28c.22.22.41.45.52.74-.04.06-.21-.31-.23-.34-.18-.24-.39-.36-.29-.4Z"/>
                  <path class="cls-5" d="M224.77,157.64l-.06-.03c.06-.15.04-.06.06.03Z"/>
                </g>
                <g>
                  <path class="cls-15" d="M214.43,158c-.07.11.06,0,.26.03.07,0,.19.06.26.08.03.04.03.08.03.08-.22.06-.29.16-.3.17-.08.05-.05.05-.06.06-.02.01-.44.13-.47.28-.1-.02-.08.02-.11.03-.17.06-.53.26-.83.36-.03,0-.06.02-.08.03-.29.09-.61.11-.88.22-.02,0-.07-.07-.08,0l-.03.03c-.07-.06-.08,0-.11,0-.31.02-.61.04-.92.06-.02,0-.06.05-.07.06-.06,0-.1,0-.17,0-.17,0-.76-.09-.88,0,0,0,0,.03-.03.03.06-.09-.46-.11-.55-.11-.03,0-.06,0-.06.03-.04-.05-.15-.09-.19-.03-.72-.3-.96-.42-1.46-1.02,1.31.66,3.27.69,4.67.36.7-.17,1.35-.57,2.05-.72Z"/>
                  <path class="cls-4" d="M214.82,157.25c-.39-.56-1.03-.89-1.31-.06-.14-.02-.38.02-.48,0,.12-1.25,1.65-1.06,1.96.01-.01.02-.14.03-.17.04Z"/>
                  <g>
                    <path class="cls-6" d="M224.71,157.61l.06.03c.06.29-.02.8.07.83.73-.23,1.22-.57,1.83-.96-.11.17-.25.32-.39.47-1.7,1-2.86,1.41-4.88,1.41-.05-.12-.08-.27-.11-.4h-.07c-.72.18-1.47.29-2.14.65-1.1.64-2.35,1-3.54,1.3.59-.23,1.18-.6,1.65-1.02.72-.66,0-.08-.28.08-.78.45-2.22.84-3.11.96-.88.13-3.35.29-4.04-.25-.11-.08-.21-.22-.28-.33.1-.05.37.14.54.19.55.17,1.71.15,2.23-.03.03,0,.14-.06.12-.11.08,0,.09,0,.17,0,.73-.02.79-.17,1.1-.3.04-.02.07-.04.11-.06.46-.22.94-.43,1.19-.91.02-.04.03,0,.06-.08.11-.28.14-.61-.03-.88,0,0,0-.04-.03-.08.41.13.74.43.98.77-.38-.8-.61-1.07-1.5-.88-.7.15-1.35.55-2.05.72-1.4.33-3.36.3-4.67-.36-.09-.11-.1-.12-.19-.25.68.65.67-.42.01-.14l-.32-.47c1.02.45,2.67.29,3.76.14.58-.08,1.69-.36,1.96-.39.71-.06,1.17.23,1.89,0,.03,0,.15-.02.17-.04-.31-1.08-1.83-1.26-1.96-.01-.38-.08-.03-.99.34-1.24.79-.55,1.88.24,1.85,1.13,1.3-.16,2.78.79,2.4,2.26.59-.98.7-2.2.5-3.31.34.89.62,1.82.76,2.77.58.29.73-1.5.7-2.11.2.67.36,1.36.43,2.05h.06c.27-.85.49-1.71.48-2.6.11.45.25.89.34,1.34.09.43.17,1.31.23,1.34.17.08.45-1.17.48-1.34.05-.27.05-.57.1-.84.13.25.28,2.18.39,2.23.52.24.79-1.8.88-2.12l.41,2.2c.2-.4.36-.82.45-1.25h.06c.04.15.07,1.1.15,1.12.44-.25.51-.79.68-1.21Z"/>
                    <path class="cls-16" d="M207.21,157.5l.32.47c.65-.29.67.79-.01.14-.14-.21-.26-.4-.36-.63.06-.01.05.03.06.03Z"/>
                    <path class="cls-15" d="M208.49,158.02c.41-.09.72.3.28.39-.9.17-.53-.33-.28-.39Z"/>
                    <path class="cls-19" d="M214.95,158.11c-.07-.02-.19-.07-.26-.08-.2-.02-.33.09-.26-.03.89-.19,1.12.08,1.5.88-.24-.35-.57-.64-.98-.77Z"/>
                  </g>
                </g>
                <g>
                  <path class="cls-10" d="M213.66,160.12c-.31.14-.37.28-1.1.3l.34-.44c.49.18.86-.07.76.14Z"/>
                  <path class="cls-10" d="M215.01,159.07c-.5-.15-.09-.28-.33-.72.02,0,.09-.1.3-.17.17.27.14.6.03.88Z"/>
                  <path class="cls-10" d="M214.95,159.15c-.25.48-.72.69-1.19.91l.26-.5c.63.37.59-.45.69-.5.01,0,.19.07.23.08Z"/>
                  <path class="cls-10" d="M212.14,159.35l.03-.03c.53.74.94.37.29,1.07-.96-.36-.51-.25-.32-1.05Z"/>
                  <path class="cls-10" d="M212.03,159.35l-.34.58-.65-.47s.05-.05.07-.06c.31-.02.61-.04.92-.06Z"/>
                  <path class="cls-10" d="M210.88,159.46c-.18.88-.46.36-.88,0,.12-.09.72,0,.88,0Z"/>
                  <path class="cls-10" d="M214.05,158.71c.15.09.02.07,0,.15-.02.08-.06.46-.12.48l-.7-.28c.29-.09.65-.3.83-.36Z"/>
                  <path class="cls-10" d="M213.14,159.1l-.29.61-.59-.39c.27-.11.59-.13.88-.22Z"/>
                  <path class="cls-10" d="M214.62,158.41c.22.82-.27.31-.47.28.03-.15.44-.26.47-.28Z"/>
                  <g>
                    <path class="cls-10" d="M209.36,159.4s.13.31.18.3c.12-.01-.11-.27-.12-.33.09,0,.61.02.55.11.02.34-.38,0-.41.4-.04.43.42.38.47.08.02-.13-.18-.68.44.11-.12.59.22.77.15.15.46.51.57.44.12-.1-.01-.09.2-.16.23-.62l.62.59c-.13.27-.46.45-.26.51.15.04.2-.27.33-.41.33.23.38.2.73.22.02.05-.1.1-.12.11-.52.18-1.68.19-2.23.03-.17-.05-.44-.24-.54-.19-.06-.11.09,0,.03-.12-.06-.11-.39-.17-.36-.87.04-.07.15-.02.19.03Z"/>
                    <path class="cls-4" d="M209.41,159.37c.01.06.25.32.12.33-.05,0-.17-.29-.18-.3,0-.04.02-.03.06-.03Z"/>
                    <path class="cls-4" d="M210.06,160.17c.21-.06.21.36-.03.28-.1-.03-.06-.25.03-.28Z"/>
                  </g>
                  <g>
                    <path class="cls-4" d="M214.68,158.35c.24.43-.17.57.33.72-.03.07-.04.05-.06.08-.04-.02-.22-.09-.23-.08-.1.05-.06.87-.69.5l-.26.5s-.07.04-.11.06c.1-.21-.27.04-.76-.14l-.34.44c-.07,0-.08,0-.17,0-.35-.02-.4,0-.73-.22-.13.14-.18.46-.33.41-.2-.06.13-.24.26-.51l-.62-.59c-.04.47-.25.53-.23.62.44.54.34.6-.12.1.06.62-.27.44-.15-.15-.62-.79-.42-.24-.44-.11-.04.29-.51.35-.47-.08.04-.4.43-.06.41-.4.03,0,.03-.03.03-.03.43.36.7.88.88,0,.06,0,.11,0,.17,0l.65.47.34-.58s.04-.06.11,0c-.19.8-.65.69.32,1.05.65-.7.24-.33-.29-1.07.02-.07.07,0,.08,0l.59.39.29-.61s.05-.02.08-.03l.7.28c.06-.02.1-.41.12-.48.02-.09.15-.06,0-.15.03,0,0-.05.11-.03.2.04.68.54.47-.28,0,0-.03,0,.06-.06Z"/>
                    <path class="cls-10" d="M213.26,159.21s.64.28.65.32c-.14.36-.13.53-.59.45-.56-.09-.15-.75-.06-.77Z"/>
                    <path class="cls-10" d="M214.17,158.8c.27.19.64.21.34.62-.17.24-.61.23-.34-.62Z"/>
                  </g>
                </g>
              </g>
            </g>
            <path class="cls-14" d="M209.97,161.74s.15.01.14.07c-.06.04-.12-.06-.14-.07Z"/>
          </g>
        </g>
        <text class="cls-1" transform="translate(232.24 161.05)"><tspan x="0" y="0">: 25</tspan></text>
      </g>
      <rect class="cls-2" x="304.4" y="110.72" width="60.08" height="66.63" rx="10.02" ry="10.02"/>
      <g>
        <text class="cls-1" transform="translate(335.15 138.13)"><tspan x="0" y="0">: 25</tspan></text>
        <g>
          <g>
            <path class="cls-11" d="M320.72,128.45c1.42-.22,1.48,2.05,0,1.86-1.02-.13-.92-1.71,0-1.86Z"/>
            <path class="cls-11" d="M318.89,127.31c1.1-.12,1.21,1.52.3,1.67-1.25.2-1.31-1.55-.3-1.67Z"/>
            <path class="cls-11" d="M320.99,126.57c1.12-.19,1.1,1.59-.05,1.39-.71-.12-.64-1.28.05-1.39Z"/>
            <path class="cls-11" d="M319.57,126.02c.77-.07.83,1.06.16,1.15-.84.11-.87-1.08-.16-1.15Z"/>
          </g>
          <g>
            <path class="cls-18" d="M320.7,142.49c-.35,0-.69.04-1.04.03,2.64-.5,3.24-1.85,3.43-1.97,2.21-.61,4.58-2.48,6.24-4.04.66-.68,2.39-1.44,2.32-2.49,0-.13-.09-.3-.16-.41v-.05c.45-1.03.1-2.39-.52-3.29-2.04-2.97-7.17-2.72-9.45.49-.75,1.06-.84,2.03-2.47,3.43-1.48,1.26-3.42,2.02-5.38,1.94-.25-.01-.5-.06-.75-.08-.15-.01-.28-.05-.44-.05.23-.16.54-.21.74-.42.11-.12.34-.63.26-.7-.8.25-1.44-.03-1.83.82.16-1.26-.75-1.69-1.82-1.95.43.93-.59,1.55.82,2.51-1,.26-.87,1.33-1.67,1.78,1.25.3,1.98.48,2.73-.78.14.13,1.1.72,1.34.85.43.23.86.43,1.31.6-.05.09-.13.17-.22.19-.33-.1.36.24.7.38,1.7.72,3.54,1.08,5.35,1.34.07.06-.45,1.65-.61,1.8-.03,0-.03.02-.05.03-.04,0-.08,0-.12.03-.03-.02-.04-.03-.04-.07,0-.08.49-1.31.51-1.54-2.92-.38-5.69-1.36-8.03-3.17-.19,0-.97,1.68-3.39.3,1.03-.2.92-1.19,1.68-1.82-.89-.7-.25-1.83-.63-2.9,1.02.5,1.96.54,2.42,1.71.61-.19,1.33-.19,1.8-.6.04.65.06,1.02-.45,1.46,1.98.34,4.2-.57,5.7-1.87,1.8-1.57,1.72-3,3.39-4.45,2.13-1.86,5.83-2.19,8.03-.27,1.17,1.02,1.9,2.79,1.38,4.3.62,1.34-1.1,2.22-1.98,2.96-2.12,1.79-3.83,3.41-6.58,4.29-.37.55-1.45,1.4-2.05,1.58-.2.06-.48.02-.45.11Z"/>
            <path class="cls-13" d="M329.34,136.51c-1.66,1.56-4.04,3.43-6.24,4.04-.19.12-.78,1.47-3.43,1.97-.06.01-.1.04-.16.03-.03-.06.04-.04.03-.11.02,0,.03-.02.05-.03.11-.03.13-.06.19-.08,2.6-.91,3.24-1.48,4.14-4.21h.04c0,.1-.16.73-.07.74,1.65-.92,2.99-2.27,4.68-3.11-.06.31.27,0,.44.03-1.76.81-3.45,2.45-5.08,3.51,2.16-.82,3.31-2.2,5.08-3.37-.02.11-.03.17.04.27l.33-.22v.05c-1.17.71-2.19,1.63-3.31,2.43-.66.47-1.36.87-2.01,1.35l.04.04c2.37-.92,3.88-2.52,5.78-4.1.05-.01.11-.08.14-.04-.03.05.02.15,0,.19-.02.04-.47.42-.68.61Z"/>
            <path class="cls-12" d="M312.48,135.99c-.18,0-.74.1-.82.29-.15.34.29.41-.03.9,0,.08.08.06.08.07-.75,1.25-1.48,1.08-2.73.78.8-.44.67-1.52,1.67-1.78-1.41-.97-.38-1.59-.82-2.51,1.06.26,1.97.69,1.82,1.95.39-.84,1.03-.57,1.83-.82.09.07-.15.58-.26.7-.2.21-.51.26-.74.42Z"/>
            <path class="cls-13" d="M318.9,139.6c2.04.25,1.54.11-.18-.25-.3-.37,1.28-.05,1.9-.14.01.01.05-.04.05.07,0,.07-.36,1.18-.42,1.32-.46-.15-.96-.19-1.45-.25-.19-.13.15-.12-.18-.25.49.06.99.11,1.47.12-1.91-.52-3.88-.83-5.74-1.54-.45-.17-.88-.37-1.31-.6v-.05c1.76.95,3.74,1.36,5.67,1.8l.18-.25Z"/>
            <path class="cls-8" d="M312.48,135.99c.15,0,.29.04.44.05-.17.06-1.08.27-1.12.42-.06.19.13.26.14.27,0,.03-.11.28-.11.3.01.06.88.6,1,.67,1.59.92,4.26,1.67,6.08,1.88l-.18.25c-1.93-.44-3.91-.85-5.65-1.8v.05c-.25-.13-1.22-.71-1.35-.85,0,0-.08.01-.08-.07.32-.49-.13-.56.03-.9.08-.19.64-.29.82-.29Z"/>
            <path class="cls-13" d="M329.34,136.51c.21-.2.66-.57.68-.61.02-.04-.03-.14,0-.19-.03-.04-.09.03-.14.04-.13.03-.34.18-.49.27v-.05q-.18.11-.34.22c-.07-.1-.06-.16-.04-.27.53-.35.85-.53,0-.14-.17-.03-.5.29-.44-.03,1.05-.52,2.22-.89,3.09-1.72.07,1.05-1.66,1.8-2.32,2.49Z"/>
            <path class="cls-17" d="M318.63,140.12c-1.16-.15-2.56-.52-3.67-.9-.24-.08-.63-.27-.81-.33.09-.02.17-.1.22-.19,1.86.72,3.83,1.03,5.74,1.54-.49-.02-.99-.06-1.47-.12Z"/>
            <path class="cls-13" d="M331.49,133.56v.05c-.5.33-.98.71-1.52.98-.23.11-1.96.79-2.1.82-.17.03-.16-.13-.05-.22.1-.08,1.82-.66,2.38-.98.55-.32,1.2-1.05,1.3-.66Z"/>
            <path class="cls-18" d="M329.88,135.75c-1.9,1.58-3.41,3.18-5.78,4.1l-.04-.04c.64-.48,1.35-.88,2.01-1.35,1.12-.8,2.14-1.72,3.32-2.43.15-.09.36-.24.49-.27Z"/>
            <path class="cls-17" d="M329.01,135.91c-1.77,1.17-2.92,2.55-5.08,3.37,1.63-1.06,3.32-2.7,5.08-3.51.85-.39.53-.22,0,.14Z"/>
            <g>
              <path class="cls-8" d="M319.78,142.33c-.06.02-.08.05-.19.08.17-.15.69-1.74.61-1.8-1.82-.26-3.66-.62-5.35-1.34-.34-.14-1.02-.48-.7-.38.18.06.57.25.81.33,1.11.38,2.51.75,3.67.9.33.13-.01.12.18.25.48.05.99.1,1.45.25.06-.15.43-1.25.42-1.32,0-.11-.04-.06-.05-.07-.14-.13-.69-.1-.93-.18,1.61-.52,1.35-.98.93.49-.27.94-.43,1.91-.85,2.8Z"/>
              <path class="cls-13" d="M320.85,138.64l-.16.52-.72-.12c.28-.19.73-.05.89-.4Z"/>
            </g>
            <g>
              <path class="cls-12" d="M331.49,133.56c-.1-.39-.75.34-1.3.66-.56.32-2.28.9-2.38.98-.11.09-.11.25.05.22.14-.03,1.88-.71,2.1-.82.54-.27,1.02-.65,1.52-.98.08.11.15.28.16.41-.87.84-2.03,1.2-3.09,1.72-1.7.84-3.03,2.2-4.68,3.11-.09-.01.06-.64.07-.72h-.04c-.9,2.71-1.53,3.28-4.14,4.19.42-.89.58-1.86.85-2.8.42-1.48.68-1.01-.93-.49.24.07.78.05.93.18-.62.08-2.2-.23-1.9.14,1.72.35,2.21.49.18.25-1.82-.22-4.49-.97-6.08-1.88-.12-.07-.99-.61-1-.67,0-.02.12-.27.11-.3,0-.02-.19-.08-.14-.27.04-.15.95-.37,1.12-.42.25.02.51.07.75.08,1.96.08,3.9-.67,5.38-1.94,1.63-1.4,1.72-2.37,2.47-3.43,2.28-3.21,7.41-3.46,9.45-.49.62.9.96,2.27.52,3.29Z"/>
              <g>
                <path class="cls-18" d="M324.6,134.22c1.39-.14,1.5,1.81.25,1.91-1.27.1-1.5-1.79-.25-1.91Z"/>
                <g>
                  <path class="cls-13" d="M324.65,134.57c.89-.07.93,1.07.27,1.2-.94.19-1.15-1.14-.27-1.2Z"/>
                  <path class="cls-18" d="M324.65,134.65c.42-.1.27.58-.05.41-.15-.08-.11-.37.05-.41Z"/>
                </g>
              </g>
            </g>
          </g>
        </g>
        <g>
          <path class="cls-4" d="M327.08,162.9c-1.32.05-2.58-.36-3.57-1.24l-.98.15c.24.26.73.65.72,1.03,0,.2-.2.43-.39.5-.9.32-2.89-.34-3.51-1.16-1.31.23-3.73.35-4.95-.06-.13-.04-.27-.14-.4-.19.08,1.05-1.26.73-1.01-.04.11-.33.34-.26.58-.15.02.01.08.11.14.07.01-.05-.1-.05-.14-.07-.77-.54-1.29-1.34-1.65-2.19-.65-.48-2.28-1.72-1.63-2.65.12-.16.47-.35.65-.45.49-.28,3.6-1.75,4.3-2.07,1.38-.61,2.78-1.19,4.24-1.57.63-.98,1.56-2.84,2.56-3.42.94-.54,2.11-.42,2,.45-.01.1-.6,1.37-.72,1.82-.13.49-.17.99-.25,1.49,2.06.8,3.72,2.3,5.39,3.71l.7-.21c-.24-.4-1.64-1.7-1.68-1.82-.42-1.12,2.53-.72,3.24-.26.38-.57.82-1.13,1.01-1.81-.56-.51.45-1.2.94-.41.56.91.03,3.41-.5,4.35.59,1.22,1.78,4.24-.87,2.66l-2.07.03c-.41.32-.84.64-1.32.85-.03.06.54.61-.57.92,1.67.65,1.67,1.65-.28,1.72Z"/>
          <g>
            <g>
              <path class="cls-10" d="M321.58,161.5c.06,0,.13-.02.18.04.16.64.88,1.08.88,1.16,0,.19-1.24,0-1.7-.18-.4-.16-.81-.49-1.12-.79.4-.01,1.6-.24,1.75-.23Z"/>
              <path class="cls-10" d="M327,159.84c.19.73.74.77.15.88-.55.11-.75-.26-.95-.72.12-.02.71-.14.8-.17Z"/>
              <g>
                <path class="cls-20" d="M322.7,159.62c.26.36.48.77.77,1.1-2.05.46-9.01,1.97-10.09-.03.69.54,3.16.37,4.04.25.9-.13,2.33-.52,3.11-.96.28-.16,1-.74.28-.08-.47.42-1.06.79-1.65,1.02,1.19-.3,2.45-.66,3.54-1.3Z"/>
                <path class="cls-10" d="M325.02,159.37c.11.26.23.5.39.74.96,1.52,2.61,1.83,2.59,2-1.57.48-3.44-.16-4.52-1.39-.29-.34-.51-.74-.77-1.1.66-.36,1.42-.46,2.14-.66h.07c.03.14.06.29.11.41Z"/>
                <path class="cls-20" d="M329.89,157.97c-.82.89-1.71,1.56-2.89,1.87-.09.02-.68.14-.8.17-.19.03-.57.02-.8.11-.15-.24-.28-.48-.39-.74,2.01,0,3.18-.4,4.88-1.41Z"/>
                <g>
                  <path class="cls-10" d="M330.28,157.5c-.61.4-1.11.74-1.83.96-.08-.03,0-.53-.07-.83-.02-.09,0-.18-.06-.03-.17.42-.24.96-.68,1.21-.08-.02-.11-.97-.15-1.12h-.06c-.1.44-.25.86-.45,1.25l-.41-2.2c-.09.32-.37,2.36-.88,2.12-.1-.05-.26-1.98-.39-2.23-.05.28-.05.57-.1.84-.03.17-.31,1.42-.48,1.34-.06-.03-.14-.9-.23-1.34-.1-.45-.24-.89-.34-1.34.01.9-.22,1.76-.48,2.6h-.06c-.07-.7-.22-1.38-.43-2.05.03.61-.12,2.4-.7,2.11-.13-.95-.42-1.88-.76-2.77.2,1.11.1,2.33-.5,3.31.38-1.47-1.1-2.42-2.4-2.26.03-.89-1.05-1.68-1.85-1.13-.37.26-.73,1.16-.34,1.24.1.02.34-.02.48,0,.28-.83.92-.51,1.31.06-.72.23-1.18-.06-1.89,0-.27.02-1.38.31-1.96.39-1.09.15-2.74.31-3.76-.14,0,0,0-.04-.06-.03,0-.02-.08-.12-.11-.21,3-1.59,6.07-3.11,9.33-4.09.76-1.3,1.73-3.66,3.5-3.56-.52,1.24-.97,2.53-.87,3.9.42.21.87.37,1.28.59,1.85.99,2.82,2.06,4.44,3.22.28-.02,1.53-.2,1.5-.54-.03-.42-1.27-1.79-1.68-2.09.92-.14,1.85.11,2.69.48.5-.52.98-1.1,1.25-1.78.1-.26.22-1.13.3-.3.11,1.1-.32,2.6-.77,3.61.4.8.72,1.64.83,2.54-.94-.27-1.64-.99-2.01-1.87-.03-.02-.1.08-.17.12Z"/>
                  <path class="cls-9" d="M319.9,153.61c.72-.07,1.24.31,1.83.65.73,1.4.09-.28-1.23-.23-.1-.24-.38-.3-.61-.36v-.06Z"/>
                  <path class="cls-7" d="M315.38,157.06c.21-.05.26.29.03.25-.14-.03-.14-.22-.03-.25Z"/>
                  <path class="cls-9" d="M319.19,154.28c.22.22.41.45.52.74-.04.06-.21-.31-.23-.34-.18-.24-.39-.36-.29-.4Z"/>
                  <path class="cls-5" d="M328.38,157.64l-.06-.03c.06-.15.04-.06.06.03Z"/>
                </g>
                <g>
                  <path class="cls-15" d="M318.04,158c-.07.11.06,0,.26.03.07,0,.19.06.26.08.03.04.03.08.03.08-.22.06-.29.16-.3.17-.08.05-.05.05-.06.06-.02.01-.44.13-.47.28-.1-.02-.08.02-.11.03-.17.06-.53.26-.83.36-.03,0-.06.02-.08.03-.29.09-.61.11-.88.22-.02,0-.07-.07-.08,0l-.03.03c-.07-.06-.08,0-.11,0-.31.02-.61.04-.92.06-.02,0-.06.05-.07.06-.06,0-.1,0-.17,0-.17,0-.76-.09-.88,0,0,0,0,.03-.03.03.06-.09-.46-.11-.55-.11-.03,0-.06,0-.06.03-.04-.05-.15-.09-.19-.03-.72-.3-.96-.42-1.46-1.02,1.31.66,3.27.69,4.67.36.7-.17,1.35-.57,2.05-.72Z"/>
                  <path class="cls-4" d="M318.43,157.25c-.39-.56-1.03-.89-1.31-.06-.14-.02-.38.02-.48,0,.12-1.25,1.65-1.06,1.96.01-.01.02-.14.03-.17.04Z"/>
                  <g>
                    <path class="cls-6" d="M328.32,157.61l.06.03c.06.29-.02.8.07.83.73-.23,1.22-.57,1.83-.96-.11.17-.25.32-.39.47-1.7,1-2.86,1.41-4.88,1.41-.05-.12-.08-.27-.11-.4h-.07c-.72.18-1.47.29-2.14.65-1.1.64-2.35,1-3.54,1.3.59-.23,1.18-.6,1.65-1.02.72-.66,0-.08-.28.08-.78.45-2.22.84-3.11.96-.88.13-3.35.29-4.04-.25-.11-.08-.21-.22-.28-.33.1-.05.37.14.54.19.55.17,1.71.15,2.23-.03.03,0,.14-.06.12-.11.08,0,.09,0,.17,0,.73-.02.79-.17,1.1-.3.04-.02.07-.04.11-.06.46-.22.94-.43,1.19-.91.02-.04.03,0,.06-.08.11-.28.14-.61-.03-.88,0,0,0-.04-.03-.08.41.13.74.43.98.77-.38-.8-.61-1.07-1.5-.88-.7.15-1.35.55-2.05.72-1.4.33-3.36.3-4.67-.36-.09-.11-.1-.12-.19-.25.68.65.67-.42.01-.14l-.32-.47c1.02.45,2.67.29,3.76.14.58-.08,1.69-.36,1.96-.39.71-.06,1.17.23,1.89,0,.03,0,.15-.02.17-.04-.31-1.08-1.83-1.26-1.96-.01-.38-.08-.03-.99.34-1.24.79-.55,1.88.24,1.85,1.13,1.3-.16,2.78.79,2.4,2.26.59-.98.7-2.2.5-3.31.34.89.62,1.82.76,2.77.58.29.73-1.5.7-2.11.2.67.36,1.36.43,2.05h.06c.27-.85.49-1.71.48-2.6.11.45.25.89.34,1.34.09.43.17,1.31.23,1.34.17.08.45-1.17.48-1.34.05-.27.05-.57.1-.84.13.25.28,2.18.39,2.23.52.24.79-1.8.88-2.12l.41,2.2c.2-.4.36-.82.45-1.25h.06c.04.15.07,1.1.15,1.12.44-.25.51-.79.68-1.21Z"/>
                    <path class="cls-16" d="M310.82,157.5l.32.47c.65-.29.67.79-.01.14-.14-.21-.26-.4-.36-.63.06-.01.05.03.06.03Z"/>
                    <path class="cls-15" d="M312.1,158.02c.41-.09.72.3.28.39-.9.17-.53-.33-.28-.39Z"/>
                    <path class="cls-19" d="M318.57,158.11c-.07-.02-.19-.07-.26-.08-.2-.02-.33.09-.26-.03.89-.19,1.12.08,1.5.88-.24-.35-.57-.64-.98-.77Z"/>
                  </g>
                </g>
                <g>
                  <path class="cls-10" d="M317.27,160.12c-.31.14-.37.28-1.1.3l.34-.44c.49.18.86-.07.76.14Z"/>
                  <path class="cls-10" d="M318.62,159.07c-.5-.15-.09-.28-.33-.72.02,0,.09-.1.3-.17.17.27.14.6.03.88Z"/>
                  <path class="cls-10" d="M318.57,159.15c-.25.48-.72.69-1.19.91l.26-.5c.63.37.59-.45.69-.5.01,0,.19.07.23.08Z"/>
                  <path class="cls-10" d="M315.75,159.35l.03-.03c.53.74.94.37.29,1.07-.96-.36-.51-.25-.32-1.05Z"/>
                  <path class="cls-10" d="M315.64,159.35l-.34.58-.65-.47s.05-.05.07-.06c.31-.02.61-.04.92-.06Z"/>
                  <path class="cls-10" d="M314.49,159.46c-.18.88-.46.36-.88,0,.12-.09.72,0,.88,0Z"/>
                  <path class="cls-10" d="M317.66,158.71c.15.09.02.07,0,.15-.02.08-.06.46-.12.48l-.7-.28c.29-.09.65-.3.83-.36Z"/>
                  <path class="cls-10" d="M316.75,159.1l-.29.61-.59-.39c.27-.11.59-.13.88-.22Z"/>
                  <path class="cls-10" d="M318.24,158.41c.22.82-.27.31-.47.28.03-.15.44-.26.47-.28Z"/>
                  <g>
                    <path class="cls-10" d="M312.97,159.4s.13.31.18.3c.12-.01-.11-.27-.12-.33.09,0,.61.02.55.11.02.34-.38,0-.41.4-.04.43.42.38.47.08.02-.13-.18-.68.44.11-.12.59.22.77.15.15.46.51.57.44.12-.1-.01-.09.2-.16.23-.62l.62.59c-.13.27-.46.45-.26.51.15.04.2-.27.33-.41.33.23.38.2.73.22.02.05-.1.1-.12.11-.52.18-1.68.19-2.23.03-.17-.05-.44-.24-.54-.19-.06-.11.09,0,.03-.12-.06-.11-.39-.17-.36-.87.04-.07.15-.02.19.03Z"/>
                    <path class="cls-4" d="M313.03,159.37c.01.06.25.32.12.33-.05,0-.17-.29-.18-.3,0-.04.02-.03.06-.03Z"/>
                    <path class="cls-4" d="M313.67,160.17c.21-.06.21.36-.03.28-.1-.03-.06-.25.03-.28Z"/>
                  </g>
                  <g>
                    <path class="cls-4" d="M318.29,158.35c.24.43-.17.57.33.72-.03.07-.04.05-.06.08-.04-.02-.22-.09-.23-.08-.1.05-.06.87-.69.5l-.26.5s-.07.04-.11.06c.1-.21-.27.04-.76-.14l-.34.44c-.07,0-.08,0-.17,0-.35-.02-.4,0-.73-.22-.13.14-.18.46-.33.41-.2-.06.13-.24.26-.51l-.62-.59c-.04.47-.25.53-.23.62.44.54.34.6-.12.1.06.62-.27.44-.15-.15-.62-.79-.42-.24-.44-.11-.04.29-.51.35-.47-.08.04-.4.43-.06.41-.4.03,0,.03-.03.03-.03.43.36.7.88.88,0,.06,0,.11,0,.17,0l.65.47.34-.58s.04-.06.11,0c-.19.8-.65.69.32,1.05.65-.7.24-.33-.29-1.07.02-.07.07,0,.08,0l.59.39.29-.61s.05-.02.08-.03l.7.28c.06-.02.1-.41.12-.48.02-.09.15-.06,0-.15.03,0,0-.05.11-.03.2.04.68.54.47-.28,0,0-.03,0,.06-.06Z"/>
                    <path class="cls-10" d="M316.87,159.21s.64.28.65.32c-.14.36-.13.53-.59.45-.56-.09-.15-.75-.06-.77Z"/>
                    <path class="cls-10" d="M317.78,158.8c.27.19.64.21.34.62-.17.24-.61.23-.34-.62Z"/>
                  </g>
                </g>
              </g>
            </g>
            <path class="cls-14" d="M313.58,161.74s.15.01.14.07c-.06.04-.12-.06-.14-.07Z"/>
          </g>
        </g>
        <text class="cls-1" transform="translate(335.85 161.05)"><tspan x="0" y="0">: 25</tspan></text>
      </g>
    </g>
  </g>
</svg>