<?xml version="1.0" encoding="UTF-8"?>
<svg id="Layer_2" data-name="Layer 2" xmlns="http://www.w3.org/2000/svg" viewBox="0 0 455.65 320.35">
  <defs>
    <style>
      .cls-1 {
        letter-spacing: -.02em;
      }

      .cls-2 {
        letter-spacing: -.03em;
      }

      .cls-3 {
        font-size: 18px;
      }

      .cls-3, .cls-4, .cls-5 {
        fill: #231f20;
        font-family: NexusSansPro-Bold, 'Nexus Sans Pro';
        font-weight: 700;
      }

      .cls-6 {
        fill: #fff;
      }

      .cls-6, .cls-7 {
        stroke: #231f20;
        stroke-miterlimit: 10;
      }

      .cls-4 {
        font-size: 21px;
      }

      .cls-5 {
        font-size: 27px;
      }

      .cls-7 {
        fill: none;
      }

      .cls-8 {
        letter-spacing: 0em;
      }
    </style>
  </defs>
  <g id="Layer_1-2" data-name="Layer 1">
    <g>
      <ellipse class="cls-6" cx="235.57" cy="38.5" rx="39.5" ry="38"/>
      <ellipse class="cls-6" cx="105.16" cy="176.7" rx="39.5" ry="38"/>
      <ellipse class="cls-6" cx="353.55" cy="174.67" rx="39.5" ry="38"/>
      <rect class="cls-6" x=".5" y="275.2" width="64" height="44" rx="12" ry="12"/>
      <rect class="cls-6" x="132.25" y="275.2" width="64" height="44" rx="12" ry="12"/>
      <rect class="cls-6" x="259.4" y="275.85" width="64" height="44" rx="12" ry="12"/>
      <rect class="cls-6" x="391.15" y="275.85" width="64" height="44" rx="12" ry="12"/>
      <line class="cls-7" x1="101.83" y1="214.55" x2="34.48" y2="275.39"/>
      <line class="cls-7" x1="105.54" y1="214.61" x2="163.92" y2="275.08"/>
      <line class="cls-7" x1="350.99" y1="212.46" x2="287.18" y2="276.04"/>
      <line class="cls-7" x1="357.99" y1="212.39" x2="416.61" y2="275.73"/>
      <line class="cls-7" x1="110.3" y1="139.2" x2="214.71" y2="71.48"/>
      <line class="cls-7" x1="353.55" y1="136.67" x2="254.41" y2="72.1"/>
      <text class="cls-5" transform="translate(209.85 45.56)"><tspan x="0" y="0">Raiz</tspan></text>
      <text class="cls-4" transform="translate(79.2 180.91)"><tspan class="cls-1" x="0" y="0">N</tspan><tspan class="cls-8" x="15.29" y="0">odo</tspan></text>
      <text class="cls-4" transform="translate(329.68 180.25)"><tspan class="cls-1" x="0" y="0">N</tspan><tspan class="cls-8" x="15.29" y="0">odo</tspan></text>
      <text class="cls-3" transform="translate(13.85 301.88)"><tspan class="cls-2" x="0" y="0">H</tspan><tspan x="13.27" y="0">oja</tspan></text>
      <text class="cls-3" transform="translate(145.91 302.43)"><tspan class="cls-2" x="0" y="0">H</tspan><tspan x="13.27" y="0">oja</tspan></text>
      <text class="cls-3" transform="translate(273.92 302.6)"><tspan class="cls-2" x="0" y="0">H</tspan><tspan x="13.27" y="0">oja</tspan></text>
      <text class="cls-3" transform="translate(405.51 303.42)"><tspan class="cls-2" x="0" y="0">H</tspan><tspan x="13.27" y="0">oja</tspan></text>
    </g>
  </g>
</svg>